<?xml version="1.0" encoding="UTF-8"?>
<svg width="49px" height="60px" viewBox="0 0 49 60" version="1.1" xmlns="http://www.w3.org/2000/svg" xmlns:xlink="http://www.w3.org/1999/xlink">
    <!-- Generator: Sketch 50 (54983) - http://www.bohemiancoding.com/sketch -->
    <title>Group 4</title>
    <desc>Created with Sketch.</desc>
    <defs></defs>
    <g id="Page-1" stroke="none" stroke-width="1" fill="none" fill-rule="evenodd">
        <g id="Leistungen-Cards" transform="translate(-189.000000, -2246.000000)" fill-rule="nonzero">
            <g id="Group-4" transform="translate(189.000000, 2246.000000)">
                <path d="M35.8876172,0 L4.28566406,0 L4.28566406,21.4285547 L0,21.4285547 L0,60 L30,60 L30,55.7143359 L48.5714063,55.7143359 L48.5714063,12.6839062 L35.8876172,0 Z M37.1428125,7.31613281 L41.2552734,11.4285937 L37.1428125,11.4285937 L37.1428125,7.31613281 Z M25.7142188,55.7143359 L4.28566406,55.7143359 L4.28566406,25.7143359 L25.7142188,25.7143359 L25.7142188,55.7143359 Z M44.2857422,51.4285547 L30,51.4285547 L30,21.4285547 L8.57144531,21.4285547 L8.57144531,4.28566406 L32.8571484,4.28566406 L32.8571484,15.7142578 L44.2857422,15.7142578 L44.2857422,51.4285547 Z" id="Shape" fill="#69BAC2"></path>
                <rect id="Rectangle-path" fill="#F2799D" x="9" y="30" width="12.8571094" height="4.28566406"></rect>
                <rect id="Rectangle-path" fill="#F2799D" x="9" y="39" width="4.28566406" height="4.28566406"></rect>
                <rect id="Rectangle-path" fill="#F2799D" x="17" y="39" width="4.28566406" height="4.28566406"></rect>
                <rect id="Rectangle-path" fill="#F2799D" x="9" y="47" width="4.28566406" height="4.28566406"></rect>
                <rect id="Rectangle-path" fill="#F2799D" x="17" y="47" width="4.28566406" height="4.28566406"></rect>
            </g>
        </g>
    </g>
</svg>