<?xml version="1.0" encoding="UTF-8"?>
<svg width="17px" height="11px" viewBox="0 0 17 11" version="1.1" xmlns="http://www.w3.org/2000/svg" xmlns:xlink="http://www.w3.org/1999/xlink">
    <!-- Generator: Sketch 50 (54983) - http://www.bohemiancoding.com/sketch -->
    <title>Group 31</title>
    <desc>Created with Sketch.</desc>
    <defs></defs>
    <g id="Page-1" stroke="none" stroke-width="1" fill="none" fill-rule="evenodd">
        <g id="Leistungen-Cards" transform="translate(-765.000000, -3622.000000)" fill-rule="nonzero">
            <g id="Group-31" transform="translate(765.000000, 3622.000000)">
                <g id="switzerland">
                    <path d="M15.5065625,10.9819286 L1.25534226,10.9819286 C0.562014881,10.9819286 0,10.4199137 0,9.72658631 L0,1.25534226 C0,0.562047619 0.562014881,0 1.25534226,0 L15.5065625,0 C16.1998571,0 16.7619048,0.562014881 16.7619048,1.25534226 L16.7619048,9.72661905 C16.7619048,10.4199137 16.1998899,10.9819286 15.5065625,10.9819286 Z" id="Shape" fill="#FF4B55"></path>
                    <path d="M11.6470119,4.31199702 L9.62402679,4.31199702 L9.62402679,2.2890119 C9.62402679,2.12941369 9.4946131,2 9.33501488,2 L7.60100893,2 C7.44141071,2 7.31199702,2.12941369 7.31199702,2.2890119 L7.31199702,4.31199702 L5.2890119,4.31199702 C5.12941369,4.31199702 5,4.44141071 5,4.60100893 L5,6.33501488 C5,6.4946131 5.12941369,6.62402679 5.2890119,6.62402679 L7.31199702,6.62402679 L7.31199702,8.6470119 C7.31199702,8.80661012 7.44141071,8.93602381 7.60100893,8.93602381 L9.33501488,8.93602381 C9.4946131,8.93602381 9.62402679,8.80661012 9.62402679,8.6470119 L9.62402679,6.62396131 L11.6470119,6.62396131 C11.8066101,6.62396131 11.9360238,6.49454762 11.9360238,6.3349494 L11.9360238,4.60094345 C11.9360238,4.44137798 11.8066101,4.31199702 11.6470119,4.31199702 Z" id="Shape" fill="#F5F5F5"></path>
                </g>
            </g>
        </g>
    </g>
</svg>