<?xml version="1.0" encoding="UTF-8"?>
<svg width="60px" height="50px" viewBox="0 0 60 50" version="1.1" xmlns="http://www.w3.org/2000/svg" xmlns:xlink="http://www.w3.org/1999/xlink">
    <!-- Generator: Sketch 50 (54983) - http://www.bohemiancoding.com/sketch -->
    <title>015-chair</title>
    <desc>Created with Sketch.</desc>
    <defs></defs>
    <g id="Page-1" stroke="none" stroke-width="1" fill="none" fill-rule="evenodd">
        <g id="Leistungen-Cards" transform="translate(-870.000000, -1152.000000)" fill="#69BAC2" fill-rule="nonzero">
            <g id="Group-Copy-10" transform="translate(861.000000, 1120.000000)">
                <g id="Group-10-Copy-9">
                    <g id="015-chair" transform="translate(9.000000, 32.000000)">
                        <path d="M58.0973438,30.0452344 L49.9417969,21.90375 L42.7880859,21.90375 L42.7880859,9.31746094 L35.0729297,6.34769531 C35.1016406,6.11929688 35.1181641,5.88726563 35.1181641,5.65125 C35.1181641,2.58152344 32.6169141,0.0840234375 29.5423828,0.0840234375 C26.4678516,0.0840234375 23.9666016,2.58140625 23.9666016,5.65125 C23.9666016,8.72097656 26.4678516,11.2184766 29.5423828,11.2184766 C31.1095313,11.2184766 32.5269141,10.5685547 33.5408203,9.52570312 L39.2671875,11.7298828 L39.2671875,21.90375 L27.0199219,21.90375 L27.0199219,19.6543359 L32.4188672,19.6543359 L32.4188672,16.1387109 L18.1583203,16.1387109 L18.1583203,19.6543359 L23.4985547,19.6543359 L23.4985547,21.90375 L17.2446094,21.90375 L11.5560937,16.2246094 C9.25429687,13.9267969 5.50910156,13.9266797 3.20753906,16.2249609 L0,19.4273438 L12.9193359,32.3269922 L17.6688281,32.3269922 L17.6688281,38.53125 L28.4678906,38.53125 L28.4678906,45.8534766 L24.0267188,45.8534766 L24.0267188,49.3691016 L36.2470312,49.3691016 L36.2470312,45.8534766 L31.9889062,45.8534766 L31.9889062,38.53125 L42.7879687,38.53125 L42.7879687,32.3269922 L45.6199219,32.3269922 L55.3086328,42.0008203 L58.0976953,39.2159766 C59.3245312,37.9911328 60,36.3628125 60,34.6305469 C59.9998828,32.8981641 59.3241797,31.2697266 58.0973438,30.0452344 Z M29.5422656,7.70273438 C28.4091797,7.70261719 27.4875,6.78234375 27.4875,5.65113281 C27.4875,4.51992188 28.4092969,3.59953125 29.5422656,3.59953125 C30.6753516,3.59953125 31.5970312,4.51992188 31.5970312,5.65113281 C31.5970312,6.78234375 30.6752344,7.70273438 29.5422656,7.70273438 Z M39.2669531,35.0157422 L21.1898438,35.0157422 L21.1898438,32.3271094 L39.2669531,32.3271094 L39.2669531,35.0157422 Z M55.6080469,36.7301953 L55.3086328,37.0291406 L47.0784375,28.8114844 L14.3777344,28.8114844 L4.97953125,19.4273437 L5.69730469,18.7107422 C6.62613281,17.7832031 8.13761719,17.7833203 9.0665625,18.710625 L15.7862109,25.4192578 L48.4833984,25.4192578 L55.6078125,32.53125 C56.1694922,33.0919922 56.4788672,33.8375391 56.4789844,34.6306641 C56.4789844,35.4237891 56.1697266,36.1693359 55.6080469,36.7301953 Z" id="Shape"></path>
                    </g>
                </g>
            </g>
        </g>
    </g>
</svg>