<?xml version="1.0" encoding="UTF-8"?>
<svg width="44px" height="50px" viewBox="0 0 44 50" version="1.1" xmlns="http://www.w3.org/2000/svg" xmlns:xlink="http://www.w3.org/1999/xlink">
    <!-- Generator: Sketch 50 (54983) - http://www.bohemiancoding.com/sketch -->
    <title>Group 2</title>
    <desc>Created with Sketch.</desc>
    <defs></defs>
    <g id="Page-1" stroke="none" stroke-width="1" fill="none" fill-rule="evenodd">
        <g id="Leistungen-Cards" transform="translate(-590.000000, -2494.000000)" fill-rule="nonzero">
            <g id="Group-2" transform="translate(590.000000, 2494.000000)">
                <circle id="Oval" fill="#F2799D" cx="21.4423828" cy="10.4423828" r="1.44238281"></circle>
                <path d="M39.8058594,37.1882813 L29.0577148,32.3203125 C31.9365234,30.1683594 33.8367188,26.7757812 33.9567383,22.9418945 C34.5985352,22.7123047 35.1849609,22.3380859 35.6743164,21.8374023 C36.509668,20.9829102 36.9696289,19.8540039 36.9696289,18.6588867 C36.9696289,17.4637695 36.509668,16.3348633 35.6743164,15.4803711 C35.1865234,14.98125 34.6022461,14.6079102 33.962793,14.378125 L33.962793,8.23691406 L33.9319336,8.23691406 L33.9319336,7.4265625 C33.9318359,3.33154297 30.6001953,0 26.5052734,0 L17.0205078,0 C12.9254883,0 9.59394531,3.33154297 9.59394531,7.4265625 L9.59394531,10.4827148 L9.59414062,10.4827148 L9.59414062,14.3782227 C8.95458984,14.6080078 8.37041016,14.9813477 7.88261719,15.4804688 C7.04726562,16.3349609 6.58730469,17.4638672 6.58730469,18.6589844 C6.58730469,19.8541016 7.04726562,20.9830078 7.88261719,21.8375 C8.37197266,22.3381836 8.95839844,22.7124023 9.60019531,22.9419922 C9.72246094,26.8491211 11.6932617,30.2981445 14.6646484,32.4425781 L13.2519531,33.0824219 L10.2900391,34.4238281 L10.2900391,34.4239258 L4.18613281,37.1883789 C1.64316406,38.3402344 0,40.8882812 0,43.6798828 L0,50 L2.9296875,50 L2.9296875,43.6796875 C2.9296875,42.0357422 3.89736328,40.5352539 5.39482422,39.8569336 L9.55097656,37.9746094 L8.06992188,45.090332 L14.5025391,50 L21.9600586,50 L18.8779297,42.2305664 L25.1109375,42.2305664 L22.0288086,50 L29.4863281,50 L35.9189453,45.0904297 L34.4375977,37.9731445 L38.597168,39.8571289 C40.0946289,40.5353516 41.0623047,42.0359375 41.0623047,43.6798828 L41.0623047,50 L43.9919922,50 L43.9919922,43.6796875 C43.9919922,40.8880859 42.3488281,38.3401367 39.8058594,37.1882813 Z M31.0330078,12.0490234 L31.0330078,13.3772461 C29.8964844,12.7817383 29.1729492,11.9222656 28.7249023,11.1666016 L31.0021484,11.1666016 L31.0021484,12.0490234 L31.0330078,12.0490234 Z M17.0205078,2.9296875 L26.5052734,2.9296875 C28.9848633,2.9296875 31.0021484,4.94697266 31.0021484,7.4265625 L31.0021484,8.23691406 L27.8737305,8.23691406 C27.1094727,5.59082031 24.6671875,3.64931641 21.7783203,3.64931641 C18.8894531,3.64931641 16.4470703,5.59072266 15.6828125,8.23691406 L12.5236328,8.23691406 L12.5237305,7.4265625 L12.5236328,7.4265625 C12.5236328,4.94697266 14.540918,2.9296875 17.0205078,2.9296875 Z M25.1891602,10.1688477 C25.0980469,11.9712891 23.6030273,13.4097656 21.7783203,13.4097656 C19.8951172,13.4097656 18.3628906,11.8777344 18.3628906,9.99443359 C18.3628906,8.11113281 19.8950195,6.57900391 21.7783203,6.57900391 C23.6616211,6.57900391 25.1936523,8.11113281 25.1936523,9.99443359 C25.1936523,10.0349609 25.1919922,10.0750977 25.190625,10.115332 L25.1785156,10.1176758 C25.1801758,10.1266602 25.1838867,10.1445312 25.1891602,10.1688477 Z M14.7695312,11.1666016 C14.3152344,11.9007812 13.6027344,12.7477539 12.5238281,13.3697266 L12.5238281,11.1666016 L14.7695312,11.1666016 Z M12.5238281,22.5560547 L12.5238281,20.3114258 L11.0946289,20.2766602 C10.224707,20.2553711 9.51699219,19.5297852 9.51699219,18.659082 C9.51699219,17.7883789 10.224707,17.0626953 11.0946289,17.0415039 L12.5238281,17.0067383 L12.5238281,16.5914062 C14.4054687,15.9176758 15.7102539,14.7770508 16.5980469,13.6516602 C17.7483398,15.2760742 19.640918,16.3395508 21.7783203,16.3395508 C23.8920898,16.3395508 25.7664062,15.2996094 26.9201172,13.7055664 C27.805957,14.8262695 29.1166992,15.9295898 31.0330078,16.55 L31.0330078,17.0066406 L32.462207,17.0414062 C33.3321289,17.0626953 34.0398438,17.7882812 34.0398438,18.6589844 C34.0398438,19.5296875 33.3321289,20.2553711 32.462207,20.2765625 L31.0330078,20.3113281 L31.0330078,22.555957 C31.0330078,27.6592773 26.8811523,31.8110352 21.7779297,31.8110352 C16.6751953,31.8111328 12.5238281,27.6592773 12.5238281,22.5560547 Z M15.4927734,47.0703125 L11.3140625,43.880957 L12.8547852,36.4783203 L13.3543945,36.2520508 L17.6459961,47.0703125 L15.4927734,47.0703125 Z M17.7157227,39.3008789 L16.0261719,35.0418945 L18.0092773,34.14375 C19.1964844,34.5308594 20.4630859,34.7408203 21.777832,34.7408203 C23.2599609,34.7408203 24.6808594,34.4740234 25.9958984,33.987207 L25.9348633,34.1220703 L27.9631836,35.0407227 L26.2731445,39.3008789 L17.7157227,39.3008789 Z M28.4959961,47.0703125 L26.3427734,47.0703125 L30.6342773,36.2520508 L31.1338867,36.4783203 L32.6746094,43.880957 L28.4959961,47.0703125 Z" id="Shape" fill="#69BAC2"></path>
            </g>
        </g>
    </g>
</svg>