<?xml version="1.0" encoding="UTF-8"?>
<svg width="60px" height="51px" viewBox="0 0 60 51" version="1.1" xmlns="http://www.w3.org/2000/svg" xmlns:xlink="http://www.w3.org/1999/xlink">
    <!-- Generator: Sketch 50 (54983) - http://www.bohemiancoding.com/sketch -->
    <title>002-first-aid-kit</title>
    <desc>Created with Sketch.</desc>
    <defs></defs>
    <g id="Page-1" stroke="none" stroke-width="1" fill="none" fill-rule="evenodd">
        <g id="Leistungen-Cards" transform="translate(-520.000000, -104.000000)" fill-rule="nonzero">
            <g id="Group" transform="translate(503.000000, 63.000000)">
                <g id="002-first-aid-kit" transform="translate(17.000000, 41.000000)">
                    <path d="M39.1248047,8.11675781 L39.1248047,0.0310546875 L20.8751953,0.0310546875 L20.8751953,8.11664063 L0,8.11664063 L0,23.4090234 L2.6784375,23.4090234 L2.6784375,50.3594531 L57.3214453,50.3594531 L57.3214453,23.4091406 L60,23.4091406 L60,8.11675781 L39.1248047,8.11675781 Z M24.3908203,3.54667969 L35.6091797,3.54667969 L35.6091797,8.11664062 L24.3908203,8.11664062 L24.3908203,3.54667969 Z M6.1940625,46.8438281 L6.1940625,23.4091406 L53.8058203,23.4091406 L53.8058203,46.8438281 L6.1940625,46.8438281 Z M56.484375,19.8935156 L3.515625,19.8935156 L3.515625,11.6323828 L56.484375,11.6323828 L56.484375,19.8935156 Z" id="Shape" fill="#69BAC2"></path>
                    <polygon id="Shape" fill="#F2799D" points="31.7578125 33.3685547 31.7578125 27.6986719 28.2421875 27.6986719 28.2421875 33.3685547 22.5724219 33.3685547 22.5724219 36.8841797 28.2421875 36.8841797 28.2421875 42.5540625 31.7578125 42.5540625 31.7578125 36.8841797 37.4275781 36.8841797 37.4275781 33.3685547"></polygon>
                </g>
            </g>
        </g>
    </g>
</svg>