<?xml version="1.0" encoding="UTF-8"?>
<svg width="60px" height="32px" viewBox="0 0 60 32" version="1.1" xmlns="http://www.w3.org/2000/svg" xmlns:xlink="http://www.w3.org/1999/xlink">
    <!-- Generator: Sketch 50 (54983) - http://www.bohemiancoding.com/sketch -->
    <title>018-mouth</title>
    <desc>Created with Sketch.</desc>
    <defs></defs>
    <g id="Page-1" stroke="none" stroke-width="1" fill="none" fill-rule="evenodd">
        <g id="Leistungen-Cards" transform="translate(-878.000000, -122.000000)" fill="#69BAC2" fill-rule="nonzero">
            <g id="Group-Copy" transform="translate(861.000000, 63.000000)">
                <g id="Group-10-Copy-9">
                    <g id="018-mouth" transform="translate(17.000000, 59.000000)">
                        <path d="M57.6157031,10.6964062 C57.5538281,10.6666406 51.3521484,7.65773437 44.0371875,2.68007812 C39.5969531,-0.341367188 35.7078516,-0.162773438 33.2274609,0.519140625 C31.794375,0.913007812 30.6679688,1.50902344 29.9061328,2.00050781 C27.4546875,0.580898437 24.7451953,0.0478125 21.999375,0.4565625 C19.5275391,0.82453125 17.6476172,1.84136719 16.7469141,2.41488281 C16.3993359,2.63625 16.0885547,2.82445312 15.7966406,2.99027344 L0,11.9644922 L15.1675781,25.4291016 C17.6813672,27.6607031 20.4938672,29.2278516 23.5265625,30.0868359 C26.0176172,30.7924219 28.3161328,31.0680469 30.3887109,31.0680469 C33.8251172,31.0680469 36.6387891,30.3097266 38.6678906,29.4957422 C40.2856641,28.8467578 41.8119141,27.8947266 43.2044531,26.6660156 L60,11.8467187 L57.6157031,10.6964062 Z M40.8823828,24.0284766 C39.7911328,24.9912891 38.6064844,25.7328516 37.3616016,26.2321875 C34.6156641,27.33375 30.1524609,28.3098047 24.4828125,26.70375 C21.9628125,25.9900781 19.6127344,24.6761719 17.4977344,22.7985937 L11.0396484,17.0655469 C16.7008594,18.8909766 24.0860156,20.8258594 29.9585156,20.8258594 C35.7926953,20.8258594 43.1029687,18.9160547 48.7337109,17.1011719 L40.8823828,24.0284766 Z M13.6515234,14.1916406 C18.5483203,13.3955859 24.9980859,12.5327344 29.9548828,12.5327344 C34.914375,12.5327344 41.3528906,13.3965234 46.2360938,14.1929297 C41.0833594,15.7836328 34.8611719,17.3103516 29.9583984,17.3103516 C25.0589063,17.3103516 18.8210156,15.7829297 13.6515234,14.1916406 Z M29.9548828,9.01710937 C22.3866797,9.01710937 11.893125,10.8643359 7.60875,11.6840625 L17.5298437,6.04792969 C17.8734375,5.85269531 18.2340234,5.63460938 18.6317578,5.38136719 C19.8779297,4.58789063 24.3053906,2.25644531 28.9596094,5.56675781 L30.1196484,6.39199219 L31.1663672,5.42671875 C31.2116016,5.38488281 35.7653906,1.30230469 42.0629297,5.58761719 C45.8295703,8.15074219 49.2664453,10.1857031 51.7969922,11.5971094 C47.2749609,10.7407031 37.2657422,9.01710937 29.9548828,9.01710937 Z" id="Shape"></path>
                    </g>
                </g>
            </g>
        </g>
    </g>
</svg>