<?xml version="1.0" encoding="UTF-8"?>
<svg width="70px" height="60px" viewBox="0 0 70 60" version="1.1" xmlns="http://www.w3.org/2000/svg" xmlns:xlink="http://www.w3.org/1999/xlink">
    <!-- Generator: Sketch 50 (54983) - http://www.bohemiancoding.com/sketch -->
    <title>Group 15</title>
    <desc>Created with Sketch.</desc>
    <defs></defs>
    <g id="Page-1" stroke="none" stroke-width="1" fill="none" fill-rule="evenodd">
        <g id="Leistungen-Cards" transform="translate(-179.000000, -2494.000000)" fill-rule="nonzero">
            <g id="Group-15" transform="translate(179.000000, 2494.000000)">
                <path d="M58.2671205,8.4940776 L37.9433628,8.4940776 L37.9433628,1.38856365 C37.9433628,0.621647379 37.3217155,0 36.5547992,0 L4.38856365,0 C3.62164738,0 3,0.621647379 3,1.38856365 L3,20.1869299 C3,20.9538462 3.62164738,21.5754935 4.38856365,21.5754935 L23.5390061,21.5754935 L23.5390061,26.3138189 C23.5390061,26.8754255 23.8774677,27.3817563 24.3961879,27.5967325 C24.5680054,27.6679374 24.7484003,27.7025187 24.9272975,27.7025187 C25.2886317,27.7025187 25.6438393,27.5613342 25.9094622,27.2958475 L31.6296801,21.5756297 L32.799047,21.5756297 L32.799047,23.9552076 C32.799047,24.7221239 33.4206943,25.3437713 34.1876106,25.3437713 L37.7298843,25.3437713 L41.9097345,29.5237577 C42.1754935,29.7893805 42.530565,29.9304289 42.8918993,29.9304289 C43.0707965,29.9304289 43.2513274,29.8957114 43.4230088,29.8246426 C43.9418652,29.6096664 44.2801906,29.1034717 44.2801906,28.5417291 L44.2801906,25.3436351 L58.2671205,25.3436351 C59.0340368,25.3436351 59.6556841,24.7219877 59.6556841,23.9550715 L59.6556841,9.88264125 C59.6558203,9.11572498 59.0341729,8.4940776 58.2671205,8.4940776 Z M35.1660994,18.7982301 L31.0544588,18.7982301 L31.0544588,18.7983662 C30.6861811,18.7983662 30.3330157,18.9447243 30.0725664,19.2050374 L26.3161334,22.9614704 L26.3161334,20.1869299 C26.3161334,19.4200136 25.694486,18.7983662 24.9275698,18.7983662 L5.7771273,18.7983662 L5.7771273,2.7771273 L35.1660994,2.7771273 L35.1660994,18.7982301 Z M56.8785568,22.566644 L42.891627,22.566644 C42.1247107,22.566644 41.5030633,23.1882914 41.5030633,23.9552076 L41.5030633,25.1895167 L39.286998,22.9733152 C39.0266848,22.713002 38.6733833,22.566644 38.3051055,22.566644 L35.5763104,22.566644 L35.5763104,21.5756297 L36.554663,21.5756297 C37.3215793,21.5756297 37.9432267,20.9539823 37.9432267,20.187066 L37.9432267,11.271341 L56.8785568,11.271341 L56.8785568,22.566644 Z" id="Shape" fill="#F2799D"></path>
                <path d="M53.091627,14 L41.3885636,14 C40.6216474,14 40,14.6216474 40,15.3885636 C40,16.1554799 40.6216474,16.7771273 41.3885636,16.7771273 L53.091627,16.7771273 C53.8585432,16.7771273 54.4801906,16.1554799 54.4801906,15.3885636 C54.4801906,14.6216474 53.8585432,14 53.091627,14 Z" id="Shape" fill="#F2799D"></path>
                <path d="M53.091627,18 L41.3885636,18 C40.6216474,18 40,18.6216474 40,19.3885636 C40,20.1554799 40.6216474,20.7771273 41.3885636,20.7771273 L53.091627,20.7771273 C53.8585432,20.7771273 54.4801906,20.1554799 54.4801906,19.3885636 C54.4801906,18.6216474 53.8585432,18 53.091627,18 Z" id="Shape" fill="#F2799D"></path>
                <path d="M21.5909805,26.6551396 C20.6054121,25.6032675 19.2134448,25 17.7720561,25 L14.2329138,25 C12.7915251,25 11.399694,25.6034037 10.4141255,26.6551396 C9.42855713,27.7070116 8.9170527,29.135194 9.01099416,30.5735875 L9.16838013,32.9854323 L9.53543255,38.6176991 C9.680293,40.8373043 10.930259,42.8024506 12.87934,43.8743363 C13.857148,44.4122532 14.9297144,44.6811436 16.002553,44.6811436 C17.0751194,44.6811436 18.1480942,44.4121171 19.12563,43.8743363 C21.074711,42.8024506 22.3246769,40.8371681 22.4695374,38.6176991 L22.8892787,32.1817563 L22.8892787,32.1816201 L22.9941119,30.5735875 C23.0876449,29.1353302 22.5764128,27.7070116 21.5909805,26.6551396 Z M11.782131,30.3927842 C11.7374748,29.7079646 11.9712392,29.0548673 12.4405381,28.5538462 C12.9098369,28.0529612 13.5463243,27.7771273 14.2327777,27.7771273 L16.8800207,27.7771273 L16.3619812,29.1586113 C16.179408,29.4198775 15.0292379,30.8695711 11.8455755,31.366644 L11.782131,30.3927842 Z M19.6979921,38.4368958 C19.6152147,39.7053778 18.9009873,40.8283186 17.7871684,41.4409803 C16.6695374,42.0556841 15.3351603,42.0556841 14.2175292,41.4409803 C13.1037103,40.8283186 12.3894829,39.7053778 12.3067055,38.4368958 L12.0270595,34.1478557 C14.6623216,33.7852961 16.3542208,32.8799183 17.3946565,32.0473792 C17.5983325,32.1961879 17.8273318,32.3362832 18.0813822,32.4673928 C18.5284891,32.6984343 19.1760044,32.9274336 20.0421718,33.1609258 L19.6979921,38.4368958 Z M19.3559908,30.0001361 C19.2345476,29.9373724 19.1430568,29.8815521 19.0744387,29.8347175 L19.5572161,28.5471749 C19.5593944,28.5494894 19.5619812,28.5515317 19.5641596,28.5538462 C20.0180738,29.0383935 20.2518383,29.6652144 20.2261065,30.3256637 C19.7415592,30.1773996 19.4860112,30.0672566 19.3559908,30.0001361 Z" id="Shape" fill="#69BAC2"></path>
                <path d="M31.9729658,58.2720218 L31.3867167,55.0367597 C30.6690857,51.0755616 27.5308964,47.9139551 23.577731,47.1695031 C22.9805901,47.0570456 22.3702429,47.0001361 21.7635717,47.0001361 L19.9984253,47.0001361 C19.6301476,47.0001361 19.2769822,47.1464942 19.0165329,47.4068074 L15.9977446,50.4257318 L12.978684,47.4066712 C12.7183709,47.1463581 12.3650693,47 11.9967916,47 L10.2315091,47 C9.62470172,47 9.01435455,47.0570456 8.41748593,47.1693669 C4.46432051,47.9136828 1.32599512,51.0751532 0.608364077,55.0366236 L0.0222510749,58.2720218 C-0.0511321791,58.6770592 0.0590107753,59.0936692 0.322863737,59.4095303 C0.586716698,59.7253914 0.977050258,59.9079646 1.38862276,59.9079646 L30.6067303,59.9079646 C31.0183028,59.9079646 31.4086364,59.7253914 31.6724893,59.4095303 C31.9363423,59.0936692 32.046213,58.6769231 31.9729658,58.2720218 Z M3.05111425,57.1312457 L3.05111425,57.1311096 L3.34083515,55.5319265 C3.85479022,52.6954391 6.1013525,50.4317223 8.93116871,49.8989789 C9.35907885,49.8183799 9.79665543,49.7775357 10.2315091,49.7775357 L11.4215703,49.7775357 L15.015716,53.3716814 C15.2760292,53.6319946 15.6293307,53.7783526 15.9976085,53.7783526 C16.3658862,53.7783526 16.7190516,53.6319946 16.9795009,53.3716814 L20.5735104,49.7775357 L21.7635717,49.7775357 C22.1982892,49.7775357 22.6358658,49.8183799 23.0639121,49.8989789 C25.8937283,50.4317223 28.1402906,52.6955752 28.6542456,55.5319265 L28.9439665,57.1312457 L3.05111425,57.1312457 Z" id="Shape" fill="#69BAC2"></path>
                <path d="M58.5909806,26.6550034 C57.6054122,25.6032675 56.213581,25 54.7720562,25 L51.2329139,25 C49.791389,25 48.3995579,25.6034037 47.4139895,26.6551396 C46.4285572,27.7071477 45.9170528,29.1353302 46.0109942,30.5735875 L46.1683802,32.9854323 L46.5357049,38.6176991 C46.6805654,40.8373043 47.9305313,42.8024506 49.8796123,43.8743363 C50.8574204,44.4122532 51.9299867,44.6811436 53.0028254,44.6811436 C54.0753918,44.6811436 55.1483666,44.4121171 56.1259023,43.8743363 C58.0749833,42.8024506 59.3249493,40.8371681 59.4698097,38.6176991 L59.8894149,32.1817563 L59.9942481,30.5735875 C60.0877812,29.135194 59.5764129,27.7068754 58.5909806,26.6550034 Z M48.7822672,30.3927842 C48.7377471,29.7079646 48.9715116,29.0548673 49.4406743,28.5538462 C49.9099731,28.0529612 50.5465967,27.7771273 51.2329139,27.7771273 L53.8801569,27.7771273 L53.3621174,29.1586113 C53.1795443,29.4198775 52.0293741,30.8695711 48.8457117,31.366644 L48.7822672,30.3927842 Z M56.6979922,38.4368958 C56.6154871,39.7053778 55.9012597,40.8283186 54.7873046,41.4409803 C53.6696736,42.0556841 52.3352965,42.0556841 51.2176654,41.4409803 C50.1038465,40.8283186 49.3896191,39.7053778 49.3068417,38.4368958 L49.0271957,34.1478557 C51.6624578,33.7852961 53.3543571,32.8799183 54.3947927,32.0473792 C54.5984687,32.1961879 54.827468,32.3362832 55.0812461,32.4673928 C55.528353,32.6982982 56.1757321,32.9272975 57.0420357,33.1609258 L56.6979922,38.4368958 Z M56.356127,30.0001361 C56.2346838,29.9373724 56.1433291,29.8815521 56.0745749,29.8347175 L56.5573523,28.5471749 C56.5595306,28.5494894 56.5619813,28.5515317 56.5641596,28.55371 C57.0180739,29.0383935 57.2518383,29.6652144 57.2262427,30.3256637 C56.7416954,30.1773996 56.4862835,30.0672566 56.356127,30.0001361 Z" id="Shape" fill="#69BAC2"></path>
                <path d="M69.9726936,58.2718856 L69.3865806,55.0364874 C68.6689495,51.0752893 65.5306241,47.9136828 61.5774587,47.1693669 C60.9803178,47.0569095 60.3701068,47 59.7632994,47 L57.998153,47 C57.6298753,47 57.2767099,47.1463581 57.0162606,47.4066712 L53.9973362,50.4255956 L50.9785479,47.4066712 C50.7182347,47.1463581 50.3649332,47 49.9966554,47 L48.2315091,47 C47.6247017,47 47.0142184,47.0570456 46.4173498,47.1693669 C42.4641844,47.9136828 39.3259951,51.0751532 38.6083641,55.0366236 L38.0222511,58.2720218 C37.9488678,58.6770592 38.0590108,59.0936692 38.3228637,59.4095303 C38.5867167,59.7253914 38.9770503,59.9079646 39.3886228,59.9079646 L68.6063219,59.9079646 C69.0178944,59.9079646 69.4082279,59.7253914 69.6720809,59.4095303 C69.9359339,59.093533 70.0459407,58.6769231 69.9726936,58.2718856 Z M41.0511142,57.1311096 L41.0511142,57.1309735 L41.3408351,55.5317903 C41.8547902,52.6953029 44.1012164,50.4315861 46.9311687,49.8988428 C47.359215,49.8182437 47.7966554,49.7773996 48.2315091,49.7773996 L49.4215703,49.7773996 L53.0155799,53.3715453 C53.275893,53.6318584 53.6291946,53.7782165 53.9974723,53.7782165 C54.3657501,53.7782165 54.7189155,53.6318584 54.9793648,53.3715453 L58.5735104,49.7773996 L59.7635717,49.7773996 C60.1982892,49.7773996 60.6358658,49.8182437 61.0639121,49.8988428 C63.8937283,50.4315861 66.1404267,52.6954391 66.6542456,55.5317903 L66.9439665,57.1311096 L41.0511142,57.1311096 Z" id="Shape" fill="#69BAC2"></path>
                <path d="M31.224098,7 L30.3885636,7 C29.6216474,7 29,7.62164738 29,8.38856365 C29,9.15547992 29.6216474,9.7771273 30.3885636,9.7771273 L31.224098,9.7771273 C31.9910143,9.7771273 32.6126617,9.15547992 32.6126617,8.38856365 C32.6126617,7.62164738 31.9910143,7 31.224098,7 Z" id="Shape" fill="#F2799D"></path>
                <path d="M25.1489449,7 L10.3885636,7 C9.62164738,7 9,7.62164738 9,8.38856365 C9,9.15547992 9.62164738,9.7771273 10.3885636,9.7771273 L25.1489449,9.7771273 C25.9158611,9.7771273 26.5375085,9.15547992 26.5375085,8.38856365 C26.5375085,7.62164738 25.9158611,7 25.1489449,7 Z" id="Shape" fill="#F2799D"></path>
                <path d="M30.8579986,12 L10.3885636,12 C9.62164738,12 9,12.6216474 9,13.3885636 C9,14.1554799 9.62164738,14.7771273 10.3885636,14.7771273 L30.8578625,14.7771273 C31.6247788,14.7771273 32.2464261,14.1554799 32.2464261,13.3885636 C32.2465623,12.6216474 31.6249149,12 30.8579986,12 Z" id="Shape" fill="#F2799D"></path>
            </g>
        </g>
    </g>
</svg>