<?xml version="1.0" encoding="UTF-8"?>
<svg width="60px" height="24px" viewBox="0 0 60 24" version="1.1" xmlns="http://www.w3.org/2000/svg" xmlns:xlink="http://www.w3.org/1999/xlink">
    <!-- Generator: Sketch 50 (54983) - http://www.bohemiancoding.com/sketch -->
    <title>030-braces</title>
    <desc>Created with Sketch.</desc>
    <defs></defs>
    <g id="Page-1" stroke="none" stroke-width="1" fill="none" fill-rule="evenodd">
        <g id="Leistungen-Cards" transform="translate(-164.000000, -1879.000000)" fill="#69BAC2" fill-rule="nonzero">
            <g id="Group-Copy-14" transform="translate(147.000000, 1818.000000)">
                <g id="Group-10-Copy-9">
                    <g id="030-braces" transform="translate(17.000000, 61.000000)">
                        <path d="M60,9.9609375 L56.7064453,9.9609375 C56.48625,9.04839844 56.2183594,8.13808594 55.891875,7.25929688 C53.6860547,1.32316406 49.9845703,0.077109375 47.2676953,0.077109375 C44.5441406,0.077109375 40.8385547,1.32914063 38.6346094,7.28414063 C38.6315625,7.27582031 38.6286328,7.2675 38.6255859,7.25929688 C36.4197656,1.32316406 32.7182812,0.077109375 30.0014062,0.077109375 C27.2778516,0.077109375 23.5722656,1.32914063 21.3683203,7.28414063 C21.3652734,7.27582031 21.3623437,7.2675 21.3592969,7.25929688 C19.1534766,1.32316406 15.4519922,0.077109375 12.7351172,0.077109375 C10.0055859,0.077109375 6.28957031,1.33417969 4.08738281,7.32292969 C3.77144531,8.18214844 3.51070312,9.07042969 3.29578125,9.9609375 L0,9.9609375 L0,13.4765625 L2.65792969,13.4765625 C2.47804687,14.8744922 2.38816406,16.1820703 2.34691406,17.2795313 C2.28726562,18.8682422 2.88550781,20.4336328 3.988125,21.5744531 C5.08535156,22.7095313 6.61992188,23.3603906 8.19855469,23.3603906 L17.1874219,23.3603906 C18.7154297,23.3603906 20.1616406,22.7751563 21.2595703,21.7126172 L21.3278906,21.6465234 C22.4196094,22.7361328 23.9206641,23.3603906 25.4648437,23.3603906 L34.4537109,23.3603906 C35.9817187,23.3603906 37.4280469,22.7751563 38.5264453,21.7121484 L38.5941797,21.6465234 C39.6858984,22.7361328 41.1869531,23.3602734 42.7311328,23.3602734 L51.72,23.3602734 C53.2480078,23.3602734 54.6942187,22.7750391 55.7926172,21.7120313 L55.8732422,21.6341016 C57.0696094,20.4765234 57.7182422,18.8595703 57.6526172,17.1979688 C57.6100781,16.12125 57.5205469,14.8429688 57.3446484,13.4765625 L60,13.4765625 L60,9.9609375 Z M12.7351172,3.59273437 C15.8973047,3.59273437 17.6091797,6.64242187 18.5360156,9.9609375 L14.4530859,9.9609375 L14.4530859,8.3203125 L10.9374609,8.3203125 L10.9374609,9.9609375 L6.93128906,9.9609375 C7.85800781,6.63785156 9.57046875,3.59273437 12.7351172,3.59273437 Z M18.8961328,19.1076563 L18.8150391,19.1860547 C18.3761719,19.6108594 17.7980859,19.8447656 17.1874219,19.8447656 L8.19867188,19.8447656 C7.56785156,19.8447656 6.95449219,19.5846094 6.51597656,19.1309766 C6.07523437,18.675 5.83617187,18.0482812 5.86007813,17.4113672 C5.89335938,16.5256641 5.98160156,15.0919922 6.21234375,13.4765625 L10.9375781,13.4765625 L10.9375781,15.2733984 L14.4532031,15.2733984 L14.4532031,13.4765625 L19.2568359,13.4765625 C19.4838281,15.0615234 19.5728906,16.4655469 19.6072266,17.3367187 C19.6333594,17.9995313 19.3741406,18.645 18.8961328,19.1076563 Z M30.0014063,3.59273437 C33.1635938,3.59273437 34.8754687,6.64242187 35.8023047,9.9609375 L31.7578125,9.9609375 L31.7578125,8.3203125 L28.2421875,8.3203125 L28.2421875,9.9609375 L24.1975781,9.9609375 C25.1242969,6.63785156 26.8367578,3.59273437 30.0014063,3.59273437 Z M36.1619531,19.1080078 L36.0813281,19.1860547 C35.6424609,19.6108594 35.064375,19.8447656 34.4537109,19.8447656 L25.4648438,19.8447656 C24.8340234,19.8447656 24.2206641,19.5846094 23.7821484,19.1309766 C23.3414063,18.675 23.1023438,18.0482812 23.12625,17.4113672 C23.1595313,16.5256641 23.2478906,15.0919922 23.4785156,13.4765625 L28.2421875,13.4765625 L28.2421875,15.2733984 L31.7578125,15.2733984 L31.7578125,13.4765625 L36.523125,13.4765625 C36.7501172,15.0615234 36.8391797,16.4655469 36.8735156,17.3367187 C36.8996484,17.9995313 36.6404297,18.645 36.1619531,19.1080078 Z M47.2676953,3.59273437 C50.4298828,3.59273437 52.1417578,6.64242187 53.0685937,9.9609375 L49.0241016,9.9609375 L49.0241016,8.3203125 L45.5084766,8.3203125 L45.5084766,9.9609375 L41.4638672,9.9609375 C42.3905859,6.63785156 44.1030469,3.59273437 47.2676953,3.59273437 Z M53.4282422,19.1080078 L53.3476172,19.1860547 C52.90875,19.6108594 52.3306641,19.8447656 51.72,19.8447656 L42.73125,19.8447656 C42.1004297,19.8447656 41.4870703,19.5846094 41.0485547,19.1309766 C40.6078125,18.675 40.36875,18.0482812 40.3926562,17.4113672 C40.4259375,16.5256641 40.5142969,15.0919922 40.7449219,13.4765625 L45.5085937,13.4765625 L45.5085937,15.2733984 L49.0242187,15.2733984 L49.0242187,13.4765625 L53.7895312,13.4765625 C54.0164062,15.0615234 54.1054687,16.4655469 54.1398047,17.3366016 C54.1659375,17.9995313 53.9067187,18.645 53.4282422,19.1080078 Z" id="Shape"></path>
                    </g>
                </g>
            </g>
        </g>
    </g>
</svg>