<?xml version="1.0" encoding="UTF-8"?>
<svg width="60px" height="38px" viewBox="0 0 60 38" version="1.1" xmlns="http://www.w3.org/2000/svg" xmlns:xlink="http://www.w3.org/1999/xlink">
    <!-- Generator: Sketch 50 (54983) - http://www.bohemiancoding.com/sketch -->
    <title>024-tooth-6</title>
    <desc>Created with Sketch.</desc>
    <defs></defs>
    <g id="Page-1" stroke="none" stroke-width="1" fill="none" fill-rule="evenodd">
        <g id="Leistungen-Cards" transform="translate(-519.000000, -477.000000)" fill-rule="nonzero">
            <g id="Group-Copy-3" transform="translate(502.000000, 423.000000)">
                <g id="Group-10-Copy-9">
                    <g id="024-tooth-6" transform="translate(17.000000, 54.000000)">
                        <path d="M18.80625,10.2773438 L16.1941406,12.6316406 C16.7894531,13.2914062 17.3226562,14.165625 17.7796875,15.2273438 L21.009375,13.8386719 C20.4,12.421875 19.659375,11.2242188 18.80625,10.2773438 Z" id="Shape" fill="#F2799D"></path>
                        <path d="M12.7347656,7.52929688 C11.9285156,7.52929688 11.146875,7.63945313 10.4132813,7.85625 L11.4082031,11.2277344 C11.8195313,11.1070313 12.2660156,11.0449219 12.7347656,11.0449219 C13.1859375,11.0449219 13.6160156,11.1011719 14.0121094,11.2136719 L14.9671875,7.83046875 C14.259375,7.63007813 13.5082031,7.52929688 12.7347656,7.52929688 Z" id="Shape" fill="#F2799D"></path>
                        <path d="M6.6046875,10.3429688 C5.76210937,11.2945313 5.0296875,12.4957031 4.42851562,13.9113281 L7.6640625,15.2859375 C8.11757813,14.2195312 8.64609375,13.340625 9.23789063,12.6738281 L6.6046875,10.3429688 Z" id="Shape" fill="#F2799D"></path>
                        <path d="M60,0.01171875 L0,0.01171875 L0,20.7569531 L2.68242188,20.7569531 C2.68242188,20.7570703 2.68242188,20.7571875 2.68242188,20.7574219 C2.653125,20.9800781 2.625,21.20625 2.59804688,21.4324219 L4.20117188,21.61875 C4.1625,21.7171875 4.125,21.8179687 4.0875,21.91875 C3.6796875,23.0261719 3.36445313,24.1828125 3.12070313,25.3289062 C2.98828125,25.9535156 2.87695313,26.5734375 2.78320313,27.1828125 L2.78320313,27.1839844 C2.5171875,28.9148437 2.39765625,30.5484375 2.34726563,31.8761719 C2.34492188,31.9488281 2.34375,32.0214844 2.34375,32.0941406 C2.34375,33.6058594 2.93554688,35.0824219 3.98789063,36.1710938 C5.0859375,37.3054687 6.61992188,37.9570313 8.1984375,37.9570313 L17.1878906,37.9570313 C18.7160156,37.9570313 20.1621094,37.3710938 21.2601563,36.309375 L21.3410156,36.2308594 C22.5375,35.0730469 23.1855469,33.4558594 23.1199219,31.7941406 C23.1011719,31.3253906 23.0742188,30.8179687 23.034375,30.28125 C23.7925781,30.6269531 24.6222656,30.8121094 25.4648438,30.8121094 L34.4542969,30.8121094 C35.98125,30.8121094 37.4285156,30.2273437 38.5265625,29.1644531 L38.5933594,29.1 C39.684375,30.1898437 41.1867188,30.8121094 42.73125,30.8121094 L51.7195313,30.8121094 C53.2476563,30.8121094 54.6949219,30.2273437 55.7929688,29.1644531 L55.8738281,29.0859375 C57.0691406,27.928125 57.7183594,26.3109375 57.6527344,24.6492187 C57.609375,23.5734375 57.5203125,22.2949219 57.3457031,20.9285156 L60,20.9285156 L60,0.01171875 Z M18.8964844,33.7042969 L18.815625,33.7828125 C18.3761719,34.2070312 17.7984375,34.4414062 17.1878906,34.4414062 L8.1984375,34.4414062 C7.56796875,34.4414062 6.95390625,34.18125 6.515625,33.7277344 C6.075,33.2707031 5.8359375,32.6449219 5.86054687,32.0074219 C5.98125,28.7660156 6.83671875,18.1886719 12.7347656,18.1886719 C18.6082031,18.1886719 19.4800781,28.7085937 19.6066406,31.9324219 C19.6335938,32.5957031 19.3746094,33.2414062 18.8964844,33.7042969 Z M36.1617187,26.559375 L36.0808594,26.6378906 C35.6425781,27.0621094 35.0648437,27.2964844 34.4542969,27.2964844 L25.4648437,27.2964844 C24.834375,27.2964844 24.2203125,27.0363281 23.7820312,26.5828125 C23.3414062,26.1269531 23.1023437,25.5 23.1257812,24.8625 C23.2476562,21.6210938 24.103125,11.0449219 30.0011719,11.0449219 C35.8746094,11.0449219 36.7464844,21.5636719 36.8730469,24.7886719 C36.9,25.4507812 36.6410156,26.0964844 36.1617187,26.559375 Z M53.428125,26.559375 L53.3472656,26.6378906 C52.9089844,27.0621094 52.33125,27.2964844 51.7195313,27.2964844 L42.73125,27.2964844 C42.1007813,27.2964844 41.4867188,27.0363281 41.0484375,26.5828125 C40.6078125,26.1269531 40.36875,25.5 40.3921875,24.8625 C40.5140625,21.6210938 41.3695313,11.0449219 47.2675781,11.0449219 C53.1410156,11.0449219 54.0128906,21.5636719 54.1394531,24.7886719 C54.1664062,25.4507812 53.90625,26.0964844 53.428125,26.559375 Z M56.484375,16.5550781 C56.3121094,15.9316406 56.1152344,15.3140625 55.8914063,14.7105469 C53.6859375,8.775 49.9839844,7.52929688 47.2675781,7.52929688 C44.5441406,7.52929688 40.8375,8.7796875 38.634375,14.7375 C38.6320313,14.728125 38.6285156,14.7199219 38.625,14.7105469 C36.4195313,8.775 32.71875,7.52929688 30.0011719,7.52929688 C27.271875,7.52929688 23.5558594,8.78554688 21.3539062,14.775 C20.9683594,15.825 20.6636719,16.9171875 20.4257812,18.0046875 C20.3308594,18.4417969 20.2453125,18.8777344 20.1703125,19.3089844 C19.9429687,18.91875 19.70625,18.5601563 19.4636719,18.2296875 C17.3636719,15.375 14.7726562,14.6730469 12.7347656,14.6730469 C10.6804687,14.6730469 8.0671875,15.3855469 5.96132812,18.290625 L3.515625,17.7257813 L3.515625,3.52734375 L56.484375,3.52734375 L56.484375,16.5550781 Z" id="Shape" fill="#69BAC2"></path>
                    </g>
                </g>
            </g>
        </g>
    </g>
</svg>