<?xml version="1.0" encoding="UTF-8"?>
<svg width="61px" height="70px" viewBox="0 0 61 70" version="1.1" xmlns="http://www.w3.org/2000/svg" xmlns:xlink="http://www.w3.org/1999/xlink">
    <!-- Generator: Sketch 50 (54983) - http://www.bohemiancoding.com/sketch -->
    <title>budget</title>
    <desc>Created with Sketch.</desc>
    <defs></defs>
    <g id="Page-1" stroke="none" stroke-width="1" fill="none" fill-rule="evenodd">
        <g id="Leistungen-Cards" transform="translate(-503.000000, -2801.000000)">
            <g id="budget" transform="translate(503.000000, 2801.000000)">
                <g id="Group-7" transform="translate(0.144085, 0.058084)">
                    <path d="M47.3489806,13.2512516 L47.3489806,8.5099636 L52.0889178,13.2512516 L47.3489806,13.2512516 Z M45.9022799,0.0769547516 L9.47540984,0.0769547516 L9.47540984,52.1689863 L14.4152646,47.2345347 L14.4152646,5.01680953 L42.4091258,5.01680953 L42.4091258,18.1911064 L55.5820719,18.1911064 L55.5820719,59.3579136 L31.4501316,59.3579136 L26.5035228,64.2977684 L60.5219266,64.2977684 L60.5219266,14.6979523 L45.9022799,0.0769547516 Z" id="Fill-5" fill="#69BAC2"></path>
                    <path d="M39.4684736,44.3532905 C38.6323319,45.1880814 37.3180091,45.2610243 36.3981181,44.5721192 L31.2718538,39.451258 L31.2542934,39.4688183 L31.1867537,39.4012786 L34.5110585,36.0810262 L39.4684736,41.0330381 C40.3856629,41.9488766 40.3856629,43.4374519 39.4684736,44.3532905 Z M30.9611711,47.1156648 L29.1200384,45.275883 L31.2542934,43.1429788 L33.0967769,44.9841114 L30.9611711,47.1156648 Z M27.6071488,52.8389803 L25.4985589,50.733092 L23.6587771,52.5701722 L25.767367,54.6760606 L23.718212,56.7225139 L21.6096221,54.6166256 L19.771191,56.4537059 L21.8784302,58.5595942 L21.0787599,59.3579136 L16.133502,64.2977684 L15.1244586,65.305461 C13.9627755,66.4671441 12.0716635,66.4671441 10.9086296,65.305461 C10.6114549,65.009637 10.3899246,64.6651845 10.2453896,64.2977684 C9.82124019,63.2265885 10.0427705,61.9581927 10.9086296,61.0936843 L14.4152916,57.5910747 L26.0929084,45.9283166 L28.2014983,48.0328542 L30.3087374,50.1387425 L27.6071488,52.8389803 Z M42.1065749,45.1502591 C42.5320751,44.4100238 42.7590085,43.5698298 42.7590085,42.6931643 C42.7590085,41.3720875 42.2443559,40.1293567 41.3082554,39.1959578 L34.5110585,32.4055149 L27.50719,39.4012786 L29.4145116,41.3058985 L27.2802566,43.4374519 L26.0929084,42.2528053 L14.4152916,53.9169142 L9.47543685,58.850015 L9.06884777,59.2566041 C7.10749444,61.2152558 6.91433085,64.2803432 8.48530463,66.4576885 C6.46721793,67.5680414 3.90746273,67.2587095 2.19870793,65.5526563 L1.85965856,65.2136069 L0.0198767162,67.052038 L0.358926087,67.3910874 C1.81643314,68.8458928 3.75212138,69.665825 5.8120827,69.7009456 L5.94851292,69.7009456 C7.62214707,69.7009456 9.22553991,69.1781882 10.5655279,68.2096687 C11.3368314,68.5851895 12.1770255,68.7743007 13.0172195,68.7743007 C14.4463599,68.7743007 15.8768511,68.2314165 16.9642405,67.143892 L19.8130657,64.2977684 L24.7583236,59.3579136 L33.9883011,50.1387425 L32.8023037,48.954231 L34.9946429,46.7631075 C35.8375385,47.3452999 36.8222676,47.6372065 37.8069966,47.6372065 C38.6566462,47.6372065 39.5062958,47.4195936 40.2654422,46.9859886 L42.5347767,49.2527565 L44.3732077,47.4141904 L42.1065749,45.1502591 Z" id="Fill-1" fill="#F2799D"></path>
                </g>
            </g>
        </g>
    </g>
</svg>