<?xml version="1.0" encoding="UTF-8"?>
<svg width="55px" height="60px" viewBox="0 0 55 60" version="1.1" xmlns="http://www.w3.org/2000/svg" xmlns:xlink="http://www.w3.org/1999/xlink">
    <!-- Generator: Sketch 50 (54983) - http://www.bohemiancoding.com/sketch -->
    <title>Group 13</title>
    <desc>Created with Sketch.</desc>
    <defs></defs>
    <g id="Page-1" stroke="none" stroke-width="1" fill="none" fill-rule="evenodd">
        <g id="Leistungen-Cards" transform="translate(-1157.000000, -3210.000000)" fill-rule="nonzero">
            <g id="Group-13" transform="translate(1157.000000, 3210.000000)">
                <path d="M41.0269006,27.8590643 C40.7159064,25.9632749 39.7145029,23.7036257 36.7102924,23.7036257 C36.2818713,23.7036257 35.9159064,24.0126316 35.8442105,24.4349708 L35.2676023,27.8279532 C35.0397661,29.1684211 34.7271345,30.4452632 34.3387135,31.6230409 C33.2630409,34.8846784 31.905731,36.5564912 29.4977778,37.5864327 C28.3408187,38.0811696 27.4014035,38.5044444 27.025731,38.6749708 L22.522807,38.6749708 C22.0374269,38.6749708 21.6442105,39.0681871 21.6442105,39.5535673 L21.6442105,55.4680702 C21.6442105,55.9534503 22.0375439,56.3466667 22.522807,56.3466667 L26.9054971,56.3466667 L28.7935673,57.8752047 C30.3785965,59.1584795 32.3746199,59.8651462 34.414152,59.8651462 L39.7670175,59.8651462 C40.2523977,59.8651462 40.645614,59.4718129 40.645614,58.9865497 C40.645614,58.6582456 40.4653801,58.3726316 40.1988304,58.2218713 L40.1988304,40.6767251 L39.1059649,40.6767251 L40.9452632,31.4080702 C41.1865497,30.1933333 41.2139181,28.9994152 41.0269006,27.8590643 Z" id="Shape" fill="#F7B081"></path>
                <path d="M22.522924,37.0939181 L15.6964912,37.0939181 C15.2111111,37.0939181 14.8178947,37.4872515 14.8178947,37.9725146 L14.8178947,56.7582456 C14.8178947,57.2436257 15.2112281,57.6368421 15.6964912,57.6368421 L22.522924,57.6368421 C23.0083041,57.6368421 23.4015205,57.2436257 23.4015205,56.7582456 L23.4015205,37.9726316 C23.4016374,37.4872515 23.0081871,37.0939181 22.522924,37.0939181 Z" id="Shape" fill="#EFE7E4"></path>
                <path d="M14.8178947,54.1359064 L14.8178947,56.7583626 C14.8178947,57.2437427 15.2112281,57.6369591 15.6964912,57.6369591 L22.522924,57.6369591 C23.0083041,57.6369591 23.4015205,57.2437427 23.4015205,56.7583626 L23.4015205,54.1359064 L14.8178947,54.1359064 Z" id="Shape" fill="#D8D1D0"></path>
                <path d="M37.8323977,57.3518129 C37.8323977,55.9538012 38.965614,54.8207018 40.3636257,54.8207018 C38.965614,54.8207018 37.8323977,53.6874854 37.8323977,52.2893567 C37.8323977,50.891345 38.965614,49.7581287 40.3636257,49.7581287 C38.965614,49.7581287 37.8323977,48.6247953 37.8323977,47.2269006 C37.8323977,45.8288889 38.965614,44.6956725 40.3636257,44.6956725 C38.965614,44.6956725 37.8323977,43.5623392 37.8323977,42.1645614 C37.8323977,40.7665497 38.965614,39.6332164 40.3636257,39.6332164 L37.4919298,39.6332164 C36.0939181,39.6332164 34.9607018,40.7664327 34.9607018,42.1645614 C34.9607018,43.5625731 36.0939181,44.6956725 37.4919298,44.6956725 C36.0939181,44.6956725 34.9607018,45.8290058 34.9607018,47.2269006 C34.9607018,48.6249123 36.0939181,49.7581287 37.4919298,49.7581287 C36.0939181,49.7581287 34.9607018,50.891345 34.9607018,52.2893567 C34.9607018,53.6873684 36.0939181,54.8207018 37.4919298,54.8207018 C36.0939181,54.8207018 34.9607018,55.9539181 34.9607018,57.3518129 C34.9607018,58.7498246 36.0939181,59.8831579 37.4919298,59.8831579 L40.3636257,59.8831579 C38.965614,59.8830409 37.8323977,58.7498246 37.8323977,57.3518129 Z" id="Shape" fill="#DD9A76"></path>
                <path d="M17.6753216,12.6783626 C17.4804678,12.0791813 16.9721637,11.6507602 16.348655,11.560117 L12.3534503,10.9795322 L10.5667836,7.35929825 C10.2878363,6.79426901 9.72315789,6.44327485 9.09298246,6.44327485 C8.46292398,6.44327485 7.89824561,6.79426901 7.61929825,7.35929825 L5.8328655,10.9795322 L1.83777778,11.560117 C1.21415205,11.6506433 0.705847953,12.0790643 0.510994152,12.6783626 C0.316140351,13.2775439 0.475555556,13.9231579 0.926783626,14.3633918 L3.81777778,17.1812865 L3.1354386,21.1602339 C3.02888889,21.7814035 3.2794152,22.397193 3.78900585,22.7677193 C4.07719298,22.977076 4.41415205,23.0832749 4.75356725,23.0832749 C5.01473684,23.0832749 5.27719298,23.0202339 5.51988304,22.8927485 L9.09321637,21.014152 L12.6665497,22.8927485 C13.2243275,23.1859649 13.8873684,23.1380117 14.397076,22.7677193 C14.9069006,22.3974269 15.1574269,21.7814035 15.0508772,21.1602339 L14.3684211,17.1812865 L17.2594152,14.3631579 C17.7108772,13.9232749 17.8700585,13.2776608 17.6753216,12.6783626 Z" id="Shape" fill="#F7CB4F"></path>
                <path d="M16.3487719,11.560117 L16.26,11.5472515 L11.7426901,16.0060819 C11.5106433,16.2322807 11.4047953,16.5581287 11.4595322,16.8774269 L12.5238596,22.8174269 L12.6666667,22.8925146 C13.2244444,23.185731 13.8874854,23.1377778 14.397193,22.7674854 C14.9070175,22.397193 15.1575439,21.7811696 15.0509942,21.16 L14.368538,17.1810526 L17.2595322,14.362924 C17.7108772,13.9230409 17.8701754,13.2774269 17.6754386,12.6780117 C17.4804678,12.0789474 16.9721637,11.6505263 16.3487719,11.560117 Z" id="Shape" fill="#FBAB00"></path>
                <path d="M36.1580117,6.23508772 C35.9631579,5.63590643 35.4548538,5.20748538 34.831345,5.11684211 L30.8361404,4.53625731 L29.0497076,0.916023392 C28.7707602,0.350994152 28.2060819,0 27.5760234,0 C26.945848,0 26.3812865,0.350994152 26.1023392,0.916023392 L24.3156725,4.53625731 L20.3205848,5.11684211 C19.6969591,5.20725146 19.188655,5.63578947 18.9938012,6.23508772 C18.7989474,6.83438596 18.9583626,7.47988304 19.4095906,7.92011696 L22.3007018,10.7381287 L21.6182456,14.7169591 C21.5116959,15.3381287 21.7622222,15.9539181 22.2718129,16.3244444 C22.7816374,16.6948538 23.4445614,16.7426901 24.0025731,16.4495906 L27.5759064,14.5709942 L31.1492398,16.4495906 C31.3918129,16.577193 31.654269,16.640117 31.9155556,16.640117 C32.2549708,16.640117 32.5919298,16.5336842 32.880117,16.3245614 C33.3898246,15.954152 33.6403509,15.3382456 33.5336842,14.717193 L32.8512281,10.7382456 L35.7424561,7.92011696 C36.1935673,7.48 36.3528655,6.83438596 36.1580117,6.23508772 Z" id="Shape" fill="#F7CB4F"></path>
                <path d="M32.880117,16.3242105 C33.3898246,15.9538012 33.6403509,15.3378947 33.5336842,14.7168421 L32.8512281,10.7378947 L35.7424561,7.91976608 C36.1935673,7.47976608 36.3529825,6.83415205 36.1581287,6.2348538 C35.9632749,5.63567251 35.4549708,5.20725146 34.831462,5.11660819 L34.7948538,5.11134503 L30.2252632,9.56245614 C29.9933333,9.78853801 29.8873684,10.1145029 29.9421053,10.4338012 L30.7693567,15.2566082 L30.9674854,16.3534503 L31.1492398,16.4488889 C31.3918129,16.5764912 31.654269,16.6394152 31.9155556,16.6394152 C32.2549708,16.6397661 32.5920468,16.5334503 32.880117,16.3242105 Z" id="Shape" fill="#FBAB00"></path>
                <path d="M54.6067836,12.6783626 C54.4119298,12.0791813 53.9036257,11.6507602 53.280117,11.560117 L49.2849123,10.9795322 L47.4982456,7.35929825 C47.2192982,6.79426901 46.6547368,6.44327485 46.0245614,6.44327485 C45.394386,6.44327485 44.8298246,6.79426901 44.5508772,7.35929825 L42.7642105,10.9795322 L38.7691228,11.560117 C38.1454971,11.6506433 37.637193,12.0790643 37.4423392,12.6783626 C37.2476023,13.2776608 37.4067836,13.9232749 37.8582456,14.3632749 L40.7492398,17.1814035 L40.0667836,21.1602339 C39.9602339,21.7814035 40.2107602,22.397193 40.7203509,22.7677193 C41.2301754,23.1381287 41.8929825,23.1860819 42.4511111,22.8928655 L46.0244444,21.014269 L49.5977778,22.8928655 C49.8403509,23.0204678 50.102807,23.0833918 50.3640936,23.0833918 C50.7035088,23.0833918 51.0404678,22.9769591 51.328655,22.7678363 C51.8383626,22.3974269 52.0888889,21.7815205 51.9822222,21.1604678 L51.2997661,17.1815205 L54.1909942,14.3633918 C54.6423392,13.9231579 54.8016374,13.2775439 54.6067836,12.6783626 Z" id="Shape" fill="#F7CB4F"></path>
                <path d="M54.6067836,12.6783626 C54.4119298,12.0791813 53.9036257,11.6507602 53.280117,11.560117 L53.2092398,11.5498246 L48.6739181,16.0060819 C48.4419883,16.2322807 48.3360234,16.5581287 48.3907602,16.8774269 L49.3508772,22.762807 L49.5977778,22.8926316 C49.8403509,23.0202339 50.102807,23.0831579 50.3640936,23.0831579 C50.7035088,23.0831579 51.0404678,22.9767251 51.328655,22.7676023 C51.8383626,22.397193 52.0888889,21.7812865 51.9822222,21.1602339 L51.2997661,17.1812865 L54.1909942,14.3631579 C54.6423392,13.9231579 54.8016374,13.2775439 54.6067836,12.6783626 Z" id="Shape" fill="#FBAB00"></path>
                <path d="M15.6964912,35.2673684 L0.927017544,35.2673684 C0.441637427,35.2673684 0.0484210526,35.6607018 0.0484210526,36.1459649 L0.0484210526,58.5850292 C0.0484210526,59.0704094 0.441754386,59.4636257 0.927017544,59.4636257 L15.6964912,59.4636257 C16.1818713,59.4636257 16.5750877,59.0702924 16.5750877,58.5850292 L16.5750877,36.1459649 C16.5752047,35.6605848 16.1818713,35.2673684 15.6964912,35.2673684 Z" id="Shape" fill="#FAFAFA"></path>
                <path d="M0.0484210526,56.0936842 L0.0484210526,58.5850292 C0.0484210526,59.0704094 0.441754386,59.4636257 0.927017544,59.4636257 L15.6964912,59.4636257 C16.1818713,59.4636257 16.5750877,59.0702924 16.5750877,58.5850292 L16.5750877,56.0936842 L0.0484210526,56.0936842 Z" id="Shape" fill="#9B9B9B"></path>
                <path d="M49.0356725,39.6333333 L39.882807,39.6333333 C38.2595322,39.6333333 36.9389474,40.9539181 36.9389474,42.577193 L36.9389474,43.0698246 C36.9389474,44.6932164 38.2595322,46.0136842 39.882807,46.0136842 L49.0356725,46.0136842 C50.6589474,46.0136842 51.9795322,44.6930994 51.9795322,43.0698246 L51.9795322,42.577193 C51.9795322,40.9538012 50.6590643,39.6333333 49.0356725,39.6333333 Z" id="Shape" fill="#FFC89F"></path>
                <path d="M49.0356725,43.1747368 L39.882807,43.1747368 C38.6763743,43.1747368 37.6377778,42.4450292 37.1833918,41.4039766 C37.0265497,41.7636257 36.9389474,42.1603509 36.9389474,42.577076 L36.9389474,43.0697076 C36.9389474,44.6930994 38.2595322,46.0135673 39.882807,46.0135673 L49.0356725,46.0135673 C50.6589474,46.0135673 51.9795322,44.6929825 51.9795322,43.0697076 L51.9795322,42.577076 C51.9795322,42.1602339 51.8919298,41.7636257 51.7350877,41.4039766 C51.2809357,42.4449123 50.2421053,43.1747368 49.0356725,43.1747368 Z" id="Shape" fill="#F7B081"></path>
                <path d="M50.1040936,44.2563743 L39.882807,44.2563743 C38.2595322,44.2563743 36.9389474,45.577076 36.9389474,47.2002339 L36.9389474,47.6928655 C36.9389474,49.3162573 38.2595322,50.6367251 39.882807,50.6367251 L50.1040936,50.6367251 C51.7274854,50.6367251 53.0479532,49.3161404 53.0479532,47.6928655 L53.0479532,47.2002339 C53.0479532,45.5769591 51.7274854,44.2563743 50.1040936,44.2563743 Z" id="Shape" fill="#FFC89F"></path>
                <path d="M50.1040936,47.8246784 L39.882807,47.8246784 C38.6711111,47.8246784 37.6284211,47.0887719 37.1774269,46.0405848 C37.0242105,46.3967251 36.9389474,46.788655 36.9389474,47.2003509 L36.9389474,47.6929825 C36.9389474,49.3163743 38.2595322,50.6368421 39.882807,50.6368421 L50.1040936,50.6368421 C51.7274854,50.6368421 53.0479532,49.3162573 53.0479532,47.6929825 L53.0479532,47.2002339 C53.0479532,46.788538 52.9626901,46.3966082 52.8094737,46.0404678 C52.3585965,47.0887719 51.3157895,47.8246784 50.1040936,47.8246784 Z" id="Shape" fill="#F7B081"></path>
                <path d="M48.7894737,48.8795322 L40.1292398,48.8795322 C38.3700585,48.8795322 36.9390643,50.3106433 36.9390643,52.0697076 C36.9390643,53.8288889 38.3701754,55.259883 40.1292398,55.259883 L48.7894737,55.259883 C50.548655,55.259883 51.9796491,53.8287719 51.9796491,52.0697076 C51.9795322,50.3106433 50.5484211,48.8795322 48.7894737,48.8795322 Z" id="Shape" fill="#FFC89F"></path>
                <path d="M48.7894737,52.3919298 L40.1292398,52.3919298 C38.885731,52.3919298 37.8069006,51.6763743 37.2808187,50.6356725 C37.0626901,51.0671345 36.9389474,51.554152 36.9389474,52.0697076 C36.9389474,53.8288889 38.3700585,55.259883 40.1291228,55.259883 L48.7893567,55.259883 C50.548538,55.259883 51.9795322,53.8287719 51.9795322,52.0697076 C51.9795322,51.554152 51.8557895,51.0671345 51.6376608,50.6356725 C51.1116959,51.6763743 50.0328655,52.3919298 48.7894737,52.3919298 Z" id="Shape" fill="#F7B081"></path>
                <path d="M46.4054971,53.5025731 L40.1291228,53.5025731 C38.3699415,53.5025731 36.9389474,54.9336842 36.9389474,56.6928655 C36.9389474,58.4520468 38.3700585,59.8830409 40.1291228,59.8830409 L46.4054971,59.8830409 C48.1646784,59.8830409 49.5957895,58.4519298 49.5957895,56.6928655 C49.5957895,54.9338012 48.1646784,53.5025731 46.4054971,53.5025731 Z" id="Shape" fill="#FFC89F"></path>
                <path d="M46.4054971,57.017193 L40.1291228,57.017193 C38.8852632,57.017193 37.8059649,56.3011696 37.2802339,55.259883 C37.0624561,55.6911111 36.9389474,56.1776608 36.9389474,56.6928655 C36.9389474,58.4520468 38.3700585,59.8830409 40.1291228,59.8830409 L46.4054971,59.8830409 C48.1646784,59.8830409 49.5957895,58.4519298 49.5957895,56.6928655 C49.5957895,56.1776608 49.4722807,55.6911111 49.2545029,55.259883 C48.728655,56.3011696 47.6494737,57.017193 46.4054971,57.017193 Z" id="Shape" fill="#F7B081"></path>
            </g>
        </g>
    </g>
</svg>