<?xml version="1.0" encoding="UTF-8"?>
<svg width="60px" height="38px" viewBox="0 0 60 38" version="1.1" xmlns="http://www.w3.org/2000/svg" xmlns:xlink="http://www.w3.org/1999/xlink">
    <!-- Generator: Sketch 50 (54983) - http://www.bohemiancoding.com/sketch -->
    <title>020-toothbrush</title>
    <desc>Created with Sketch.</desc>
    <defs></defs>
    <g id="Page-1" stroke="none" stroke-width="1" fill="none" fill-rule="evenodd">
        <g id="Leistungen-Cards" transform="translate(-511.000000, -1520.000000)" fill="#69BAC2" fill-rule="nonzero">
            <g id="Group-Copy-12" transform="translate(502.000000, 1465.000000)">
                <g id="Group-10-Copy-9">
                    <g id="020-toothbrush" transform="translate(9.000000, 55.000000)">
                        <path d="M54.7715625,0.0289453125 L26.9173828,0.0289453125 L26.9173828,6.24046875 C26.9173828,8.62300781 28.5198047,10.636875 30.703125,11.2648828 L30.703125,22.6882031 L26.1328125,22.6882031 L26.1328125,26.2203516 L0,26.2203516 L0,37.4710547 L52.6627734,37.4710547 C56.7085547,37.4710547 60,34.6435547 60,31.168125 L60,22.6882031 L57.1543359,22.6882031 L57.1543359,11.4690234 L60,11.4690234 L60,11.4687891 L60,5.25738281 C60,2.37433594 57.6544922,0.0289453125 54.7715625,0.0289453125 Z M30.4330078,6.24035156 L30.4330078,3.54457031 L54.7714453,3.54457031 C55.7159766,3.54457031 56.4842578,4.31296875 56.4842578,5.25738281 L56.4842578,7.95316406 L32.1458203,7.95316406 C31.2014063,7.95316406 30.4330078,7.18476562 30.4330078,6.24035156 Z M53.6387109,11.4687891 L53.6387109,22.6879687 L49.5091406,22.6879687 L49.5091406,11.4687891 L53.6387109,11.4687891 Z M45.9935156,11.4687891 L45.9935156,22.6879687 L41.8639453,22.6879687 L41.8639453,11.4687891 L45.9935156,11.4687891 Z M38.3483203,11.4687891 L38.3483203,22.6879687 L34.21875,22.6879687 L34.21875,11.4687891 L38.3483203,11.4687891 Z M9.78515625,33.9551953 L3.515625,33.9551953 L3.515625,29.7357422 L9.78515625,29.7357422 L9.78515625,33.9551953 Z M16.4648438,33.9551953 L13.3007812,33.9551953 L13.3007812,29.7357422 L16.4648438,29.7357422 L16.4648438,33.9551953 Z M56.484375,31.1680078 C56.484375,32.6789062 54.7342969,33.9553125 52.6627734,33.9553125 L19.9804688,33.9553125 L19.9804688,29.7358594 L29.6484375,29.7358594 L29.6484375,26.2037109 L56.484375,26.2037109 L56.484375,31.1680078 Z" id="Shape"></path>
                    </g>
                </g>
            </g>
        </g>
    </g>
</svg>