<?xml version="1.0" encoding="UTF-8"?>
<svg width="60px" height="52px" viewBox="0 0 60 52" version="1.1" xmlns="http://www.w3.org/2000/svg" xmlns:xlink="http://www.w3.org/1999/xlink">
    <!-- Generator: Sketch 50 (54983) - http://www.bohemiancoding.com/sketch -->
    <title>037-tooth-3</title>
    <desc>Created with Sketch.</desc>
    <defs></defs>
    <g id="Page-1" stroke="none" stroke-width="1" fill="none" fill-rule="evenodd">
        <g id="Leistungen-Cards" transform="translate(-156.000000, -1497.000000)" fill="#69BAC2" fill-rule="nonzero">
            <g id="Group-Copy-11" transform="translate(147.000000, 1465.000000)">
                <g id="Group-10-Copy-9">
                    <g id="037-tooth-3" transform="translate(9.000000, 32.000000)">
                        <path d="M48.7155469,24.7217578 C49.363125,23.1877734 49.7002734,21.5240625 49.6930078,19.8087891 C49.68,16.695 48.5363672,13.7600391 46.4589844,11.4717187 C45.4551563,6.3075 42.2145703,2.28363281 37.9024219,0.9 C31.2021094,-1.24816406 25.6613672,1.40214844 23.3978906,2.78988281 C21.1342969,1.40203125 15.5937891,-1.2478125 8.89417969,0.900117187 C5.14488281,2.1028125 2.20605469,5.25105469 0.83109375,9.53789062 C-0.9675,15.1457812 0.192070313,21.4951172 3.9328125,26.5223437 C5.51226563,28.64625 6.58007813,30.9851953 7.10636719,33.4735547 C7.34167969,34.5891797 7.54675781,35.8190625 7.715625,37.1289844 C8.87683594,46.13625 11.2094531,50.8774219 14.6483203,51.2210156 C16.6911328,51.4252734 18.3690234,49.7819531 19.6317188,46.336875 C20.4882422,44.0002734 21.1626563,40.8739453 21.5308594,37.5342187 C21.7831641,35.2489453 22.3965234,33.980625 22.8667969,33.3188672 C23.0356641,33.0809766 23.2722656,33.0454687 23.3982422,33.0454687 C23.5242188,33.0454687 23.7608203,33.0809766 23.9299219,33.3192188 C24.4000781,33.9808594 25.0132031,35.2491797 25.2645703,37.5343359 C25.6332422,40.8744141 26.3080078,44.000625 27.1645313,46.336875 C28.3576172,49.5916406 29.9196094,51.238125 31.8116016,51.2378906 C31.9222266,51.2378906 32.0342578,51.2322656 32.1471094,51.2208984 C35.5869141,50.8774219 37.9197656,46.1361328 39.0809766,37.1289844 C39.2501953,35.8164844 39.4551562,34.5870703 39.6901172,33.4751953 C39.7926562,32.9898047 39.9201562,32.5065234 40.0658203,32.0286328 C40.7823047,31.8610547 41.4796875,31.6304297 42.1517578,31.3401563 L53.4364453,42.5308594 L60,35.9123437 L48.7155469,24.7217578 Z M36.2508984,32.7485156 C35.9964844,33.9515625 35.7757031,35.2742578 35.5944141,36.6793359 C34.5089063,45.0990234 32.6039062,47.4509766 31.8911719,47.7007031 C31.6170703,47.4952734 30.9418359,46.6421484 30.223125,44.4221484 C29.5766016,42.4249219 29.0567578,39.8417578 28.7594531,37.1490234 C28.4915625,34.7126953 27.8309766,32.7389063 26.7963281,31.2827344 C26.0165625,30.1849219 24.74625,29.5292578 23.3984766,29.5292578 C22.0507031,29.5292578 20.7803906,30.1846875 20.0008594,31.2823828 C18.9664453,32.7380859 18.3053906,34.7116406 18.0363281,37.1484375 C17.7394922,39.841875 17.2198828,42.4252734 16.5732422,44.4226172 C15.8544141,46.6429687 15.1790625,47.495625 14.9050781,47.7005859 C14.1928125,47.4514453 12.2882813,45.0997266 11.2026562,36.6789844 C11.0217187,35.2768359 10.8009375,33.9540234 10.5462891,32.7466406 C9.9140625,29.7577734 8.638125,26.9575781 6.75375,24.4236328 C3.68871094,20.3047266 2.72625,15.1412109 4.17902344,10.6114453 C5.20289063,7.41890625 7.31296875,5.09941406 9.96785156,4.2478125 C12.7966406,3.34089844 15.7150781,3.39761719 18.6420703,4.41621094 C20.8891406,5.19820312 22.3010156,6.28324219 22.3099219,6.29003906 L23.3929688,7.15183594 L24.4811719,6.29425781 C24.4951172,6.28335937 25.9072266,5.1984375 28.1546484,4.41632812 C31.0819922,3.39761719 34.0006641,3.34101562 36.8289844,4.2478125 C38.7308203,4.858125 40.3496484,6.23566406 41.4888281,8.11746094 C40.1316797,7.62210937 38.6841797,7.36324219 37.1970703,7.36324219 C37.1794922,7.36324219 37.1610937,7.36324219 37.1433984,7.36335937 C33.8051953,7.37730469 30.6720703,8.69039062 28.3215234,11.0607422 C25.9707422,13.4310937 24.6839062,16.575 24.6978516,19.9133203 C24.7117969,23.2515234 26.0247656,26.3846484 28.3952344,28.7353125 C30.5506641,30.8728125 33.3452344,32.1298828 36.3444141,32.3300391 C36.3118359,32.469375 36.2804297,32.6088281 36.2508984,32.7485156 Z M43.5725391,26.18625 C41.8831641,27.8894531 39.6317578,28.8330469 37.2329297,28.8430078 C37.2199219,28.843125 37.2071484,28.843125 37.1941406,28.843125 C34.8092578,28.843125 32.565,27.9192187 30.8705859,26.23875 C29.1669141,24.5492578 28.2232031,22.2977344 28.2132422,19.8984375 C28.2031641,17.4992578 29.128125,15.2398828 30.8175,13.5362109 C32.5069922,11.8326563 34.7586328,10.8889453 37.1578125,10.8788672 C37.1707031,10.87875 37.1835938,10.87875 37.1964844,10.87875 C39.5813672,10.87875 41.825625,11.8026563 43.5200391,13.483125 C45.2235937,15.1725 46.1674219,17.4241406 46.1773828,19.8234375 C46.1874609,22.2223828 45.2627344,24.4815234 43.5737109,26.1850781 L43.5725391,26.18625 Z M53.4157031,37.5588281 L45.2634375,29.4741797 L46.8755859,27.8485547 L55.0279687,35.9330859 L53.4157031,37.5588281 Z" id="Shape"></path>
                    </g>
                </g>
            </g>
        </g>
    </g>
</svg>