<?xml version="1.0" encoding="UTF-8"?>
<svg width="60px" height="56px" viewBox="0 0 60 56" version="1.1" xmlns="http://www.w3.org/2000/svg" xmlns:xlink="http://www.w3.org/1999/xlink">
    <!-- Generator: Sketch 50 (54983) - http://www.bohemiancoding.com/sketch -->
    <title>039-tooth-1</title>
    <desc>Created with Sketch.</desc>
    <defs></defs>
    <g id="Page-1" stroke="none" stroke-width="1" fill="none" fill-rule="evenodd">
        <g id="Leistungen-Cards" transform="translate(-164.000000, -459.000000)" fill-rule="nonzero">
            <g id="Group-Copy-2" transform="translate(147.000000, 423.000000)">
                <g id="Group-10-Copy-9">
                    <g id="039-tooth-1" transform="translate(17.000000, 36.000000)">
                        <path d="M47.0143359,29.9912109 C46.6798828,29.9912109 46.3484766,30.0039844 46.0203516,30.0288281 C46.2792188,29.6253516 46.5513281,29.2285547 46.8396094,28.8410156 C50.9176172,23.3558203 52.1808984,16.4316797 50.2189453,10.3189453 C48.7236328,5.65992188 45.5325,2.23945313 41.46375,0.934570313 C34.0648828,-1.43765625 27.9658594,1.55671875 25.5633984,3.05039063 C23.1608203,1.55671875 17.0614453,-1.43765625 9.66269531,0.934804688 C5.59289062,2.2396875 2.40117187,5.66121094 0.90609375,10.3219922 C-1.05550781,16.4373047 0.210117187,23.3632031 4.29199219,28.84875 C6.04382813,31.2035156 7.22789062,33.7985156 7.81148438,36.5630859 C8.07046875,37.7859375 8.29710938,39.1428516 8.48472656,40.5952734 C9.74988281,50.4123047 12.2636719,55.5771094 15.9560156,55.9463672 C18.1146094,56.1631641 19.8989063,54.3930469 21.2571094,50.6871094 C22.1941406,48.1301953 22.9327734,44.7057422 23.3368359,41.0446875 C23.6183203,38.49375 24.3075,37.0721484 24.8364844,36.328125 C25.0678125,36.0025781 25.3910156,35.9538281 25.5630469,35.9538281 C25.7350781,35.9538281 26.0582813,36.0025781 26.2900781,36.3288281 C26.8178906,37.0712109 27.5064844,38.4919922 27.7882031,41.0445703 C28.1922656,44.7058594 28.9308984,48.1304297 29.8681641,50.6872266 C31.1526563,54.1914844 32.8174219,55.9642969 34.8199219,55.9641797 C34.935,55.9641797 35.0514844,55.9583203 35.1687891,55.9466016 C36.6400781,55.8005859 37.9317188,54.88125 39.0261328,53.2080469 C41.2306641,54.9330469 44.004375,55.9626562 47.0141016,55.9626562 C54.1744922,55.9626562 59.9997656,50.1373828 59.9997656,42.9769922 C60,35.8166016 54.1747266,29.9912109 47.0143359,29.9912109 Z M34.8775781,52.4340234 C34.7122266,52.3319531 33.8995313,51.7039453 32.9506641,48.8339063 C32.214375,46.6067578 31.6238672,43.7032031 31.2878906,40.6583203 C30.9950391,38.0061328 30.2790234,35.8630078 29.1601172,34.2894141 C28.3345313,33.1272656 26.9899219,32.4332813 25.5633984,32.4332813 C24.136875,32.4332813 22.7921484,33.1271484 21.9670313,34.2888281 C20.8467188,35.8642969 20.1303516,38.0074219 19.8376172,40.6584375 C19.5017578,43.7026172 18.9113672,46.6058203 18.1751953,48.8330859 C17.2272656,51.7011328 16.4150391,52.3310156 16.2489844,52.4337891 C15.4251562,52.2496875 13.2174609,49.7716406 11.9766797,40.1446875 C11.776875,38.5986328 11.5344141,37.1482031 11.2560938,35.8347656 C10.5670313,32.5702734 9.174375,29.5128516 7.1165625,26.7471094 C3.7115625,22.1711719 2.64316406,16.4329687 4.25847656,11.3974219 C5.40199219,7.83246094 7.76355469,5.24097656 10.7376563,4.28742187 C13.89,3.2765625 17.1410156,3.34042969 20.4007031,4.47738281 C22.8958594,5.34761719 24.4626563,6.55289062 24.4735547,6.56132812 L25.5585938,7.42382812 L26.6482031,6.56507812 C26.6637891,6.55300781 28.2303516,5.34761719 30.7257422,4.47738281 C33.9853125,3.34042969 37.2365625,3.2765625 40.3886719,4.28730469 C43.3617188,5.24085937 45.7229297,7.83152344 46.8666797,11.3950781 C48.4822266,16.4285156 47.4159375,22.1650781 44.0143359,26.7404297 C42.9514453,28.1697656 42.0553125,29.6995312 41.3439844,31.2963281 C37.0171875,33.4053516 34.0286719,37.8483984 34.0286719,42.976875 C34.0286719,45.8126953 34.9430859,48.4386328 36.4914844,50.5767188 C35.8455469,51.8157422 35.2512891,52.3519922 34.8775781,52.4340234 Z M47.0143359,52.441875 C41.7952734,52.441875 37.5493359,48.1958203 37.5493359,42.976875 C37.5493359,37.7579297 41.7952734,33.511875 47.0143359,33.511875 C52.2333984,33.511875 56.4793359,37.7578125 56.4793359,42.976875 C56.4793359,48.1959375 52.2333984,52.441875 47.0143359,52.441875 Z" id="Shape" fill="#69BAC2"></path>
                        <polygon id="Shape" fill="#F2799D" points="48.7187109 41.413125 48.7187109 37.3057031 45.1980469 37.3057031 45.1980469 41.413125 41.090625 41.413125 41.090625 44.9337891 45.1980469 44.9337891 45.1980469 49.0412109 48.7187109 49.0412109 48.7187109 44.9337891 52.8261328 44.9337891 52.8261328 41.413125"></polygon>
                    </g>
                </g>
            </g>
        </g>
    </g>
</svg>