<?xml version="1.0" encoding="UTF-8"?>
<svg width="49px" height="60px" viewBox="0 0 49 60" version="1.1" xmlns="http://www.w3.org/2000/svg" xmlns:xlink="http://www.w3.org/1999/xlink">
    <!-- Generator: Sketch 50 (54983) - http://www.bohemiancoding.com/sketch -->
    <title>010-protection</title>
    <desc>Created with Sketch.</desc>
    <defs></defs>
    <g id="Page-1" stroke="none" stroke-width="1" fill="none" fill-rule="evenodd">
        <g id="Leistungen-Cards" transform="translate(-164.000000, -792.000000)" fill-rule="nonzero">
            <g id="Group-Copy-5" transform="translate(147.000000, 760.000000)">
                <g id="Group-10-Copy-9">
                    <g id="010-protection" transform="translate(17.000000, 32.000000)">
                        <path d="M37.9648828,21.7470703 C37.0605469,19.1217187 35.1944531,17.1840234 32.8451953,16.430625 C28.9979297,15.1967578 25.7541797,16.4898047 24.1405078,17.3875781 C22.5268359,16.4900391 19.2827344,15.1972266 15.4358203,16.4308594 C13.0855078,17.1844922 11.2190625,19.1234766 10.3150781,21.7504687 C9.15691406,25.1158594 9.73394531,28.9886719 11.8585547,32.1100781 C13.0953516,33.9271875 13.9024219,35.9738672 14.1925781,38.0298047 C14.2099219,38.1525 14.2267969,38.2778906 14.2433203,38.4059766 C14.9818359,44.1355078 16.5219141,47.0388281 18.9515625,47.281875 C19.0469531,47.2913672 19.1401172,47.2960547 19.231875,47.2959375 C22.3466016,47.2954687 23.4162891,41.9071875 23.7780469,38.6293359 C23.8563281,37.9194141 23.9942578,37.4108203 24.140625,37.0494141 C24.2869922,37.4108203 24.4249219,37.9195312 24.5032031,38.6293359 C24.875625,42.00375 25.9988672,47.6141016 29.3298047,47.2817578 C31.7593359,47.0387109 33.2994141,44.1353906 34.0378125,38.4063281 C34.05375,38.2824609 34.0701562,38.1610547 34.0867969,38.0424609 C34.3766016,35.9832422 35.1858984,33.9292969 36.4271484,32.1030469 C38.5487109,28.9817578 39.1235156,25.1103516 37.9648828,21.7470703 Z M33.5139844,30.1230469 C31.9712109,32.3927344 30.9631641,34.9614844 30.5987109,37.5520312 C30.5801953,37.6836328 30.5620312,37.8179297 30.5443359,37.9555078 C30.1604297,40.9341797 29.5941797,42.5366016 29.1883594,43.2924609 C28.7886328,42.4088672 28.2737109,40.6825781 28.0045312,38.2429687 C27.8334375,36.6925781 27.4028906,35.4229687 26.7251953,34.4691797 C26.1317578,33.6339844 25.1656641,33.1353516 24.140625,33.1353516 C23.1155859,33.1353516 22.1494922,33.6338672 21.5561719,34.4690625 C20.8783594,35.4229687 20.4479297,36.6925781 20.2768359,38.2429687 C20.0075391,40.6825781 19.4927344,42.4088672 19.0930078,43.2924609 C18.6871875,42.5366016 18.1208203,40.9340625 17.7369141,37.9553906 C17.7185156,37.8125391 17.6996484,37.6728516 17.6804297,37.5367969 C17.3153906,34.9504687 16.3091016,32.3885156 14.7705469,30.1278516 C13.2678516,27.9202734 12.8475,25.216875 13.6458984,22.8965625 C14.1848437,21.3302344 15.2293359,20.1960937 16.5114844,19.7848828 C20.09625,18.6355078 22.9400391,20.7718359 23.0503125,20.8562109 L24.1136719,21.7604297 L25.2219141,20.8632422 C25.3412109,20.7716016 28.1851172,18.6353906 31.7697656,19.7848828 C33.0513281,20.1958594 34.0954688,21.3292969 34.6346484,22.8944531 C35.4333984,25.2132422 35.0145703,27.9154687 33.5139844,30.1230469 Z" id="Shape" fill="#F2799D"></path>
                        <path d="M46.7698828,13.6250391 C36.9707813,11.8346484 25.4548828,1.22191406 25.3396875,1.11503906 L24.140625,0 L22.9412109,1.11539063 C22.82625,1.22238281 11.3266406,11.8318359 1.51136719,13.6251562 L0.066796875,13.8890625 L0.066796875,29.3830078 C0.066796875,36.9058594 2.83792969,44.1397266 7.66945313,49.2295313 C11.2334766,52.9839844 22.8103125,59.2789453 23.3014453,59.5450781 L24.140625,60 L24.9798047,59.5450781 C25.4709375,59.2789453 37.0477734,52.9839844 40.6117969,49.2295313 C45.4434375,44.1397266 48.2144531,36.9058594 48.2144531,29.3830078 L48.2144531,13.8890625 L46.7698828,13.6250391 Z M44.6920312,29.3830078 C44.6920312,36.0126562 42.27375,42.3624609 38.0571094,46.8043359 C35.6208984,49.3707422 27.8477344,53.9320313 24.140625,55.9877344 C20.4335156,53.9320313 12.6603516,49.3708594 10.2241406,46.8043359 C6.0075,42.3623438 3.58921875,36.0126563 3.58921875,29.3830078 L3.58921875,16.7759766 C12.1246875,14.6316797 20.9742187,7.49953125 24.140625,4.76214844 C27.3070312,7.49953125 36.1565625,14.6317969 44.6920312,16.7759766 L44.6920312,29.3830078 Z" id="Shape" fill="#69BAC2"></path>
                    </g>
                </g>
            </g>
        </g>
    </g>
</svg>