<?xml version="1.0" encoding="UTF-8"?>
<svg width="60px" height="60px" viewBox="0 0 60 60" version="1.1" xmlns="http://www.w3.org/2000/svg" xmlns:xlink="http://www.w3.org/1999/xlink">
    <!-- Generator: Sketch 50 (54983) - http://www.bohemiancoding.com/sketch -->
    <title>023-tooth-7</title>
    <desc>Created with Sketch.</desc>
    <defs></defs>
    <g id="Page-1" stroke="none" stroke-width="1" fill="none" fill-rule="evenodd">
        <g id="Leistungen-Cards" transform="translate(-878.000000, -1850.000000)" fill="#69BAC2" fill-rule="nonzero">
            <g id="Group-Copy-16" transform="translate(861.000000, 1818.000000)">
                <g id="Group-10-Copy-9">
                    <g id="023-tooth-7" transform="translate(17.000000, 32.000000)">
                        <path d="M47.004375,36.193125 C47.4614062,33.9359766 47.3616797,31.6103906 46.6628906,29.4336328 C45.62625,26.2040625 43.4000391,23.8286719 40.5554297,22.9163672 C39.4389844,22.5583594 38.3661328,22.3807031 37.3531641,22.3296094 L36.0202734,15.7606641 L42.1878516,15.7606641 L30,0 L17.8122656,15.7607812 L23.9798437,15.7607812 L22.6469531,22.3296094 C21.6338672,22.3807031 20.5610156,22.5583594 19.4445703,22.9163672 C16.5991406,23.8289062 14.3726953,26.2051172 13.3364062,29.4359766 C12.6383203,31.6121484 12.5388281,33.9367969 12.995625,36.193125 L0,36.193125 L0,39.7226953 L14.2020703,39.7226953 C14.6022656,40.5370312 15.0801562,41.3245312 15.6364453,42.0720703 C16.725,43.5350391 17.4605859,45.1461328 17.8228125,46.8605859 C17.9892188,47.6482031 18.1340625,48.5164453 18.2532422,49.4414063 C19.1319141,56.2590234 20.9054297,59.7077344 23.6750391,59.9847656 C25.3994531,60.1569141 26.7774609,58.8682031 27.7722656,56.1540234 C28.3999219,54.4415625 28.8936328,52.1575781 29.1623438,49.7226562 C29.3257031,48.2419922 29.7012891,47.4181641 30,46.9795312 C30.2980078,47.416875 30.6740625,48.2407031 30.8376563,49.7226562 C31.10625,52.1574609 31.5999609,54.4415625 32.2276172,56.1540234 C33.1638281,58.708125 34.4396484,60 36.0234375,60 C36.1226953,60 36.2233594,59.9949609 36.3250781,59.9847656 C39.0945703,59.7078516 40.8680859,56.2590234 41.746875,49.4414062 C41.8660547,48.5166797 42.0107813,47.6485547 42.1771875,46.8610547 C42.5390625,45.148125 43.2759375,43.5352734 44.3673047,42.0672656 C44.9219531,41.32125 45.3986719,40.5352734 45.7980469,39.7228125 L60,39.7228125 L60,36.193125 L47.004375,36.193125 Z M30,5.76984375 L34.9965234,12.2312109 L31.7025,12.2312109 L33.8171484,22.6526953 C32.1744141,23.0361328 30.8561719,23.6705859 30,24.1662891 C29.1438281,23.6704688 27.8255859,23.0361328 26.1828516,22.6525781 L28.2975,12.2310937 L25.0034766,12.2310937 L30,5.76984375 Z M41.5345313,39.9614062 C40.1373047,41.8408594 39.1916016,43.9168359 38.7236719,46.1315625 C38.5379297,47.0108203 38.3772656,47.9726953 38.2460156,48.9903516 C37.6480078,53.6298047 36.6782812,55.6266797 36.1545703,56.2625391 C35.6138672,55.4234766 34.7572266,53.0636719 34.3457812,49.3355859 C34.1433984,47.5021875 33.639375,46.0074609 32.8477734,44.8932422 C32.1939844,43.9728516 31.1293359,43.4233594 29.9998828,43.4233594 C28.8703125,43.4233594 27.8056641,43.9728516 27.1519922,44.893125 C26.3602734,46.0075781 25.8563672,47.5021875 25.6539844,49.3355859 C25.2426562,53.0636719 24.3858984,55.4234766 23.8451953,56.2624219 C23.3214844,55.6265625 22.3517578,53.6298047 21.7538672,48.9902344 C21.6226172,47.9722266 21.4619531,47.0103516 21.2760937,46.1308594 C20.8078125,43.9142578 19.8630469,41.8398047 18.4680469,39.9650391 C18.4083984,39.8848828 18.3502734,39.8039062 18.2929688,39.7226953 L41.7067969,39.7226953 C41.6504297,39.8027344 41.5932422,39.8824219 41.5345313,39.9614062 Z M43.3805859,36.193125 L16.6195313,36.193125 C16.1028516,34.3038281 16.1138672,32.3330859 16.6973438,30.5141016 C17.38125,28.381875 18.7754297,26.8376953 20.5223438,26.2775391 C25.1278125,24.800625 28.7622656,27.5455078 28.9075781,27.6574219 L30,28.5183984 L31.0924219,27.6573047 C31.1291016,27.6283594 34.8153516,24.7825781 39.4777734,26.2775391 C41.2241016,26.8375781 42.6180469,28.3811719 43.3023047,30.5124609 C43.88625,32.3317969 43.8973828,34.3032422 43.3805859,36.193125 Z" id="Shape"></path>
                    </g>
                </g>
            </g>
        </g>
    </g>
</svg>