<?xml version="1.0" encoding="UTF-8"?>
<svg width="57px" height="60px" viewBox="0 0 57 60" version="1.1" xmlns="http://www.w3.org/2000/svg" xmlns:xlink="http://www.w3.org/1999/xlink">
    <!-- Generator: Sketch 50 (54983) - http://www.bohemiancoding.com/sketch -->
    <title>008-tooth-11</title>
    <desc>Created with Sketch.</desc>
    <defs></defs>
    <g id="Page-1" stroke="none" stroke-width="1" fill="none" fill-rule="evenodd">
        <g id="Leistungen-Cards" transform="translate(-870.000000, -1497.000000)" fill-rule="nonzero">
            <g id="Group-Copy-13" transform="translate(861.000000, 1465.000000)">
                <g id="Group-10-Copy-9">
                    <g id="008-tooth-11" transform="translate(9.000000, 32.000000)">
                        <path d="M29.2308772,1.49719298 C29.2308772,1.49719298 28.7219883,1.60877193 28.1480702,1.96 C27.574152,1.60877193 27.1091228,1.52654971 27.1091228,1.52654971 L25.9969591,4.83356725 C27.6211696,5.36035088 28.1479532,5.8871345 28.1479532,5.8871345 C28.1479532,5.8871345 28.7185965,5.33111111 30.342924,4.80432749 L29.2308772,1.49719298 Z" id="Shape" fill="#F2799D"></path>
                        <path d="M50.4469006,13.5071345 C49.0417544,9.42818713 46.1664327,6.4251462 42.5578947,5.26807018 C35.9216374,3.13976608 30.4322807,5.75906433 28.182807,7.13660819 C25.9333333,5.75894737 20.4442105,3.13953216 13.8076023,5.26807018 C10.1975439,6.42573099 7.32152047,9.43052632 5.91707602,13.5120468 C4.08,18.8502924 5.00304094,25.0047953 8.38631579,29.9754386 C10.5873684,33.2090058 12.0243275,36.857076 12.5421053,40.5252632 C12.5721637,40.7381287 12.6015205,40.9557895 12.6302924,41.1782456 C13.7816374,50.1098246 16.0969591,54.8115789 19.5121637,55.1530994 C19.6249123,55.1643275 19.7363743,55.1700585 19.8469006,55.1700585 C21.7280702,55.1698246 23.2804678,53.5353216 24.4645614,50.3046784 C25.3134503,47.9888889 25.9821053,44.8901754 26.3474854,41.5791813 C26.597076,39.3178947 27.2032749,38.0637427 27.6678363,37.4099415 C27.8316959,37.1789474 28.0609357,37.1445614 28.182924,37.1445614 C28.3049123,37.1445614 28.534152,37.1789474 28.6980117,37.4097076 C29.1626901,38.0638596 29.7687719,39.3181287 30.0183626,41.5791813 C30.3837427,44.8900585 31.0523977,47.9888889 31.9011696,50.3046784 C33.0853801,53.5356725 34.6375439,55.1700585 36.5188304,55.1700585 C36.6291228,55.1700585 36.7408187,55.1643275 36.8534503,55.1530994 C40.268655,54.8115789 42.5840936,50.1098246 43.7354386,41.1777778 C43.7630409,40.9636257 43.791345,40.7538012 43.8203509,40.5484211 C44.3374269,36.8736842 45.7781287,33.2139181 47.9866667,29.9646784 C51.3649123,24.994386 52.2846784,18.8419883 50.4469006,13.5071345 Z M45.0821053,27.9902924 C42.5729825,31.6816374 40.9340351,35.8550877 40.3426901,40.0591813 C40.3119298,40.2780117 40.2817544,40.5012865 40.2522807,40.7292398 C39.7915789,44.3033918 39.1060819,47.2418713 38.2699415,49.2269006 C37.5647953,50.9011696 36.9167251,51.5087719 36.5983626,51.6339181 C36.3239766,51.4218713 35.6605848,50.5712281 34.9552047,48.3887719 C34.3163743,46.4122807 33.8026901,43.857076 33.5088889,41.1939181 C33.2423392,38.7775439 32.5869006,36.820117 31.5607018,35.3756725 C30.7851462,34.2843275 29.5223392,33.6326316 28.1825731,33.6326316 C26.842924,33.6326316 25.580117,34.2842105 24.8045614,35.3757895 C23.7785965,36.8197661 23.1231579,38.7773099 22.8563743,41.1939181 C22.5624561,43.857076 22.0488889,46.4122807 21.4100585,48.3887719 C20.7047953,50.5712281 20.0412865,51.4218713 19.7669006,51.6339181 C19.448655,51.5088889 18.8005848,50.9010526 18.0953216,49.2269006 C17.2591813,47.2419883 16.5736842,44.3033918 16.1130994,40.7292398 C16.0825731,40.4923977 16.0512281,40.2607018 16.0191813,40.034269 C15.4266667,35.8367251 13.7911111,31.6750877 11.2893567,27.9992982 C8.52608187,23.9397661 7.75906433,18.9512281 9.23754386,14.6549708 C10.2782456,11.6309942 12.3347368,9.42853801 14.8797661,8.61239766 C16.1981287,8.1897076 17.5360234,7.97836257 18.885614,7.97836257 C20.4015205,7.97836257 21.9318129,8.24502924 23.4644444,8.77824561 C25.6888889,9.55204678 27.0867836,10.625848 27.0955556,10.6326316 L28.1774269,11.4935673 L29.2644444,10.6367251 C29.2782456,10.6259649 30.6761404,9.55216374 32.9007018,8.77836257 C35.7973099,7.77064327 38.6854971,7.7148538 41.4853801,8.61251462 C44.0292398,9.42830409 46.0852632,11.6293567 47.1261988,14.651345 C48.6054971,18.9443275 47.8412865,23.9311111 45.0821053,27.9902924 Z" id="Shape" fill="#69BAC2"></path>
                        <path d="M3.74,16.9719298 L0.251111111,16.5704094 C0.153918129,17.414269 0.104795322,18.2721637 0.104912281,19.1202339 C0.104912281,19.6221053 0.122222222,20.1302924 0.15625731,20.6304094 L3.66011696,20.391462 C3.63134503,19.9706433 3.61672515,19.542807 3.61672515,19.1202339 C3.61672515,18.405848 3.65812865,17.6831579 3.74,16.9719298 Z" id="Shape" fill="#F2799D"></path>
                        <path d="M2.66046784,8.82315789 C2.02187135,10.002807 1.49146199,11.2709942 1.08397661,12.5921637 L4.43988304,13.6272515 C4.77976608,12.5260819 5.22011696,11.4720468 5.74900585,10.4947368 L2.66046784,8.82315789 Z" id="Shape" fill="#F2799D"></path>
                        <path d="M4.20654971,23.7615205 L0.80748538,24.6445614 C1.14888889,25.9585965 1.61672515,27.2461988 2.19824561,28.4712281 L5.37099415,26.9653801 C4.88409357,25.939883 4.4922807,24.8619883 4.20654971,23.7615205 Z" id="Shape" fill="#F2799D"></path>
                        <path d="M12.3065497,44.848538 L12.2949708,44.7583626 L8.8122807,45.2109942 L8.82315789,45.2950877 C8.99695906,46.6439766 9.22233918,47.9146199 9.4928655,49.071462 L12.9125146,48.2719298 C12.6691228,47.2304094 12.4650292,46.0777778 12.3065497,44.848538 Z" id="Shape" fill="#F2799D"></path>
                        <path d="M7.1580117,29.9929825 L4.20432749,31.8929825 C4.81894737,32.8481871 5.39064327,33.8832749 5.90409357,34.9697076 L9.07929825,33.4692398 C8.50116959,32.2454971 7.85473684,31.0759064 7.1580117,29.9929825 Z" id="Shape" fill="#F2799D"></path>
                        <path d="M10.5553216,37.1266667 L7.23040936,38.257076 C7.6077193,39.3669006 7.93298246,40.52 8.19730994,41.6844444 L11.6221053,40.9070175 C11.3307602,39.6238596 10.9719298,38.3519298 10.5553216,37.1266667 Z" id="Shape" fill="#F2799D"></path>
                        <path d="M8.20023392,2.66081871 C7.05052632,3.40175439 5.97918129,4.33192982 5.01590643,5.42549708 L7.65122807,7.74690058 C8.4005848,6.89625731 9.22526316,6.17836257 10.102807,5.6128655 L8.20023392,2.66081871 Z" id="Shape" fill="#F2799D"></path>
                        <path d="M20.074152,0 L19.8355556,3.50385965 C20.9666667,3.58081871 22.1146199,3.75672515 23.2479532,4.02654971 L24.0614035,0.610175439 C22.7397661,0.295321637 21.3983626,0.0901754386 20.074152,0 Z" id="Shape" fill="#F2799D"></path>
                        <path d="M20.6432749,56.3263158 C20.4440936,56.3560234 20.2373099,56.3711111 20.028538,56.3711111 C19.2404678,56.3709942 18.5108772,56.242924 17.8603509,55.9902924 L16.5893567,59.2642105 C17.6466667,59.6746199 18.8036257,59.882924 20.0283041,59.8830409 C20.4104094,59.8830409 20.7919298,59.8549708 21.1623392,59.7995322 L20.6432749,56.3263158 Z" id="Shape" fill="#F2799D"></path>
                        <path d="M24.702924,52.5651462 C24.1973099,53.6323977 23.6105263,54.4923977 22.9585965,55.1215205 L25.3974269,57.648655 C26.3550877,56.7243275 27.1893567,55.519883 27.8768421,54.0687719 L24.702924,52.5651462 Z" id="Shape" fill="#F2799D"></path>
                        <path d="M16.0169591,0.0856140351 C14.6607018,0.239298246 13.3187135,0.522807018 12.0283041,0.928421053 L13.0815205,4.27871345 C14.1578947,3.94023392 15.2784795,3.70374269 16.4120468,3.5754386 L16.0169591,0.0856140351 Z" id="Shape" fill="#F2799D"></path>
                        <path d="M13.9499415,51.5556725 L10.7135673,52.9192982 C11.3182456,54.354152 12.0525146,55.585848 12.8963743,56.5802339 L15.574269,54.3080702 C14.9621053,53.5866667 14.4155556,52.6607018 13.9499415,51.5556725 Z" id="Shape" fill="#F2799D"></path>
                        <path d="M56.1230409,16.5705263 L52.634152,16.9720468 C52.7160234,17.6830409 52.7574269,18.405848 52.7574269,19.1202339 C52.7574269,19.542807 52.742807,19.9706433 52.714152,20.3915789 L56.2180117,20.6305263 C56.2520468,20.1302924 56.2693567,19.6222222 56.2693567,19.1203509 C56.2693567,18.2722807 56.2202339,17.414386 56.1230409,16.5705263 Z" id="Shape" fill="#F2799D"></path>
                        <path d="M53.7135673,8.82315789 L50.6250292,10.4947368 C51.1540351,11.4721637 51.594386,12.5260819 51.934152,13.6272515 L55.2900585,12.5921637 C54.8825731,11.2708772 54.3521637,10.002807 53.7135673,8.82315789 Z" id="Shape" fill="#F2799D"></path>
                        <path d="M52.1677193,23.7615205 C51.8817544,24.8618713 51.4900585,25.939883 51.0032749,26.9654971 L54.1760234,28.471345 C54.7574269,27.2461988 55.2253801,25.9587135 55.5667836,24.6446784 L52.1677193,23.7615205 Z" id="Shape" fill="#F2799D"></path>
                        <path d="M44.0792982,44.7583626 L44.0676023,44.848538 C43.9092398,46.0777778 43.7051462,47.2304094 43.4616374,48.2719298 L46.8812865,49.071462 C47.1518129,47.9146199 47.377076,46.6440936 47.5509942,45.2950877 L47.5618713,45.2109942 L44.0792982,44.7583626 Z" id="Shape" fill="#F2799D"></path>
                        <path d="M49.2162573,29.9929825 C48.5194152,31.0759064 47.8729825,32.2454971 47.2947368,33.4691228 L50.4699415,34.9697076 C50.9832749,33.8833918 51.5550877,32.8483041 52.1697076,31.8929825 L49.2162573,29.9929825 Z" id="Shape" fill="#F2799D"></path>
                        <path d="M45.8189474,37.1267836 C45.4022222,38.3519298 45.0433918,39.6238596 44.7521637,40.9071345 L48.1769591,41.6845614 C48.4411696,40.520117 48.7666667,39.3669006 49.1438596,38.257193 L45.8189474,37.1267836 Z" id="Shape" fill="#F2799D"></path>
                        <path d="M48.1739181,2.66093567 L46.271345,5.61298246 C47.1488889,6.17836257 47.9735673,6.89637427 48.722924,7.74701754 L51.3582456,5.42561404 C50.3949708,4.33204678 49.3237427,3.40187135 48.1739181,2.66093567 Z" id="Shape" fill="#F2799D"></path>
                        <path d="M36.3,0 C34.9757895,0.0901754386 33.634386,0.295321637 32.3126316,0.610175439 L33.1260819,4.02654971 C34.2594152,3.75672515 35.4074854,3.58081871 36.5384795,3.50385965 L36.3,0 Z" id="Shape" fill="#F2799D"></path>
                        <path d="M38.5136842,55.9902924 C37.8631579,56.242924 37.1335673,56.3709942 36.3454971,56.3711111 C36.1367251,56.3711111 35.9300585,56.3560234 35.7308772,56.3263158 L35.2116959,59.7996491 C35.5821053,59.8549708 35.9636257,59.8831579 36.345614,59.8831579 C37.5702924,59.8830409 38.7273684,59.6747368 39.7845614,59.2643275 L38.5136842,55.9902924 Z" id="Shape" fill="#F2799D"></path>
                        <path d="M31.671462,52.5651462 L28.4975439,54.0687719 C29.1850292,55.52 30.0192982,56.7244444 30.9769591,57.648655 L33.4157895,55.1215205 C32.7637427,54.4923977 32.1768421,53.6322807 31.671462,52.5651462 Z" id="Shape" fill="#F2799D"></path>
                        <path d="M40.357076,0.0857309942 L39.9619883,3.57555556 C41.0955556,3.70385965 42.2159064,3.94046784 43.2925146,4.27883041 L44.345731,0.928421053 C43.0554386,0.522807018 41.7134503,0.239298246 40.357076,0.0857309942 Z" id="Shape" fill="#F2799D"></path>
                        <path d="M29.9487719,45.8991813 L28.1871345,46.0995322 L26.4253801,45.8990643 C26.2853801,47.1294737 26.079883,48.2940351 25.8146199,49.3604678 L27.6433918,49.8153216 L28.1871345,49.8153216 L28.7307602,49.8153216 L30.5595322,49.3604678 C30.294269,48.294152 30.0887719,47.1294737 29.9487719,45.8991813 Z" id="Shape" fill="#F2799D"></path>
                        <path d="M42.4242105,51.5557895 C41.9585965,52.6607018 41.4121637,53.5866667 40.8,54.3080702 L43.4778947,56.5802339 C44.3216374,55.585848 45.0560234,54.3540351 45.6607018,52.9192982 L42.4242105,51.5557895 Z" id="Shape" fill="#F2799D"></path>
                    </g>
                </g>
            </g>
        </g>
    </g>
</svg>