<?xml version="1.0" encoding="UTF-8"?>
<svg width="55px" height="60px" viewBox="0 0 55 60" version="1.1" xmlns="http://www.w3.org/2000/svg" xmlns:xlink="http://www.w3.org/1999/xlink">
    <!-- Generator: Sketch 50 (54983) - http://www.bohemiancoding.com/sketch -->
    <title>017-tooth-9</title>
    <desc>Created with Sketch.</desc>
    <defs></defs>
    <g id="Page-1" stroke="none" stroke-width="1" fill="none" fill-rule="evenodd">
        <g id="Leistungen-Cards" transform="translate(-164.000000, -1152.000000)" fill-rule="nonzero">
            <g id="Group-Copy-8" transform="translate(147.000000, 1120.000000)">
                <g id="Group-10-Copy-9">
                    <g id="017-tooth-9" transform="translate(17.000000, 32.000000)">
                        <path d="M53.7435938,10.59 C52.0976953,5.81226563 48.7369922,2.29710938 44.5231641,0.945820313 C36.5177344,-1.62117188 29.9351953,1.67941406 27.4219922,3.2596875 C24.9083203,1.67941406 18.3251953,-1.62105469 10.3205859,0.945820313 C6.10488281,2.29769531 2.74347656,5.81496094 1.09828125,10.595625 C-1.06511719,16.8823828 0.0242578125,24.1339453 4.01261719,29.9936719 C6.67722656,33.9084375 8.41710938,38.3261719 9.04429688,42.7693359 C9.08039063,43.025625 9.11589844,43.2875391 9.15035156,43.5554297 C9.75421875,48.2403516 10.6436719,52.0003125 11.7938672,54.7311328 C13.1717578,58.0024219 14.9492578,59.7690234 17.0773828,59.9818359 C17.1984375,59.9939063 17.3180859,60 17.4370313,59.9998828 C19.5315234,59.9997656 21.2819531,58.1199609 22.6436719,54.4047656 C23.6504297,51.6582422 24.4440234,47.9778516 24.8784375,44.0416406 C25.1213672,41.8402734 25.689375,40.0579688 26.5211719,38.8872656 C26.8189453,38.4682031 27.2503125,38.4229688 27.4219922,38.4229688 C27.5936719,38.4229688 28.0250391,38.4682031 28.3228125,38.8871484 C29.1546094,40.0579688 29.7226172,41.8402734 29.9655469,44.0416406 C30.3999609,47.9779688 31.1935547,51.6582422 32.2003125,54.4047656 C33.5621484,58.1201953 35.3122266,60 37.4069531,59.9998828 C37.5256641,59.9998828 37.6456641,59.9937891 37.7666016,59.9818359 C39.8946094,59.7690234 41.6722266,58.0024219 43.0501172,54.7311328 C44.2003125,52.0003125 45.0897656,48.2402344 45.6936328,43.5554297 C45.7267969,43.2975 45.7608984,43.0449609 45.7957031,42.7975781 C46.4219531,38.3465625 48.1661719,33.9146484 50.8399219,29.9810156 C54.8224219,24.1217578 55.9078125,16.8727734 53.7435938,10.59 Z M47.9394141,28.0096875 C44.9655469,32.3847656 43.0233984,37.329375 42.3228516,42.3090234 C42.2861719,42.5695313 42.2503125,42.8355469 42.2152734,43.1071875 C40.9860938,52.6430859 38.6955469,56.3240625 37.4395313,56.4898828 C37.1758594,56.3964844 36.2733984,55.5290625 35.3033203,52.6592578 C34.48125,50.2273828 33.8234766,47.0303906 33.4512891,43.6571484 C33.13875,40.8241406 32.3751563,38.5360547 31.1816016,36.8561719 C30.3185156,35.6414062 28.9130859,34.9163672 27.4219922,34.9163672 C25.9310156,34.9163672 24.5255859,35.6415234 23.6623828,36.8562891 C22.4688281,38.5360547 21.7052344,40.8241406 21.3926953,43.6571484 C21.0203906,47.0303906 20.3626172,50.2273828 19.5405469,52.6592578 C18.5704688,55.5290625 17.6680078,56.3964844 17.4043359,56.4898828 C16.1482031,56.3241797 13.8576563,52.6432031 12.6284766,43.1074219 C12.5921484,42.8254687 12.5548828,42.5496094 12.5166797,42.279375 C11.8149609,37.3073437 9.87679688,32.3766797 6.91171875,28.0204687 C3.54246094,23.0703516 2.60882813,16.9830469 4.41433594,11.7367969 C5.69625,8.01210937 8.23921875,5.29605469 11.3914453,4.2853125 C14.8245703,3.18433594 18.3644531,3.255 21.9127734,4.49484375 C24.6230859,5.44195312 26.3238281,6.75199219 26.3364844,6.76183594 L27.4192969,7.60851562 L28.5031641,6.76511719 C28.5200391,6.75199219 30.2207813,5.44195312 32.9310938,4.49484375 C36.4794141,3.25488281 40.0191797,3.18433594 43.4523047,4.2853125 C46.603125,5.29570312 49.1455078,8.01 50.4277734,11.7322266 C52.2338672,16.9750781 51.30375,23.0601562 47.9394141,28.0096875 Z" id="Shape" fill="#69BAC2"></path>
                        <path d="M44.4894141,14.5399219 C43.3921875,11.3592187 41.139375,9.01429687 38.3087109,8.1065625 C33.3984375,6.53191406 29.2955859,8.31925781 27.4219922,9.41226562 C25.5480469,8.31925781 21.4448437,6.53203125 16.5350391,8.1065625 C13.7063672,9.01371094 11.4541406,11.3565234 10.3562109,14.5340625 C8.93496094,18.6475781 9.63492187,23.3907422 12.22875,27.2218359 C13.8832031,29.6657813 14.9566406,32.4568359 15.3323437,35.2899609 L15.3392578,35.3438672 L15.3392578,47.2195312 L18.8462109,47.2195312 L18.8462109,35.8139062 C19.8801562,34.5400781 23.3117578,30.7393359 27.4217578,30.7393359 C31.5596484,30.7393359 34.9596094,34.5226172 35.9942578,35.8067578 L35.9942578,47.2195312 L39.5012109,47.2195312 L39.5012109,35.3677734 L39.5111719,35.2913672 C39.8880469,32.4495703 40.9583203,29.6635547 42.6063281,27.2344922 C45.2057812,23.4030469 45.9097266,18.6573047 44.4894141,14.5399219 Z M39.7042969,25.265625 C38.4050391,27.1807031 37.4083594,29.2864453 36.7548047,31.4770312 C34.6747266,29.5195312 31.3942969,27.2323828 27.421875,27.2323828 C23.4486328,27.2323828 20.1679687,29.5202344 18.0878906,31.4779687 C17.4335156,29.2885547 16.4350781,27.1794141 15.1326562,25.2557812 C13.1548828,22.3342969 12.6084375,18.7544531 13.6708594,15.6793359 C14.4046875,13.5555469 15.8389453,12.0125391 17.6057812,11.4459375 C18.6185156,11.1212109 19.5855469,10.9924219 20.4830859,10.9924219 C23.8371094,10.9924219 26.2166016,12.79125 26.3363672,12.8835937 L27.4217578,13.7390625 L28.5071484,12.8835937 C28.5452344,12.8534766 32.3848828,9.8896875 37.2377344,11.4459375 C39.0059766,12.0130078 40.4407031,13.5574219 41.1740625,15.6835547 C42.2361328,18.7617188 41.6866406,22.3439063 39.7042969,25.265625 Z" id="Shape" fill="#F2799D"></path>
                    </g>
                </g>
            </g>
        </g>
    </g>
</svg>