<?xml version="1.0" encoding="UTF-8"?>
<svg width="60px" height="49px" viewBox="0 0 60 49" version="1.1" xmlns="http://www.w3.org/2000/svg" xmlns:xlink="http://www.w3.org/1999/xlink">
    <!-- Generator: Sketch 50 (54983) - http://www.bohemiancoding.com/sketch -->
    <title>011-dental-care</title>
    <desc>Created with Sketch.</desc>
    <defs></defs>
    <g id="Page-1" stroke="none" stroke-width="1" fill="none" fill-rule="evenodd">
        <g id="Leistungen-Cards" transform="translate(-511.000000, -1152.000000)" fill-rule="nonzero">
            <g id="Group-Copy-9" transform="translate(502.000000, 1120.000000)">
                <g id="Group-10-Copy-9">
                    <g id="011-dental-care" transform="translate(9.000000, 32.000000)">
                        <path d="M59.7437109,35.6571094 C59.3230078,34.3079297 58.42875,33.1896094 57.2254688,32.5080469 C55.9851563,31.8055078 54.5689453,31.6476563 53.2375781,32.0637891 L41.3266406,35.7861328 L27.8027344,28.2509766 C24.4474219,26.3816016 20.6376563,25.9648828 17.0751563,27.0783984 L10.9598438,29.2525781 L10.9598438,27.6301172 L0,27.6301172 L0,46.1265234 L10.9597266,46.1265234 L10.9597266,44.5096875 L18.7429687,42.1619531 L35.9810156,48.7094531 L56.4353906,42.3173438 C57.7666406,41.9013281 58.8416016,40.9651172 59.4625781,39.6809766 C60.0646875,38.4353906 60.1645313,37.0061719 59.7437109,35.6571094 Z M7.4475,42.6107812 L3.51222656,42.6107812 L3.51222656,31.1457422 L7.44761719,31.1457422 L7.44761719,42.6107812 L7.4475,42.6107812 Z M56.3008594,38.1495703 C56.1075,38.5496484 55.7835938,38.8379297 55.3887891,38.9613281 L36.0925781,44.9915625 L18.8729297,38.4508594 L10.9598437,40.8376172 L10.9598437,32.983125 L18.1529297,30.4245703 C20.77875,29.6136328 23.5981641,29.9319141 26.0944922,31.3228125 L40.935,39.5916797 L54.2841797,35.4198047 C54.67875,35.2965234 55.1092969,35.3490234 55.4957813,35.5680469 C55.9194141,35.8079297 56.2373437,36.2116406 56.3910937,36.7048828 C56.5448437,37.1978906 56.5128516,37.7111719 56.3008594,38.1495703 Z" id="Shape" fill="#69BAC2"></path>
                        <path d="M55.5587109,5.53992188 C54.7055859,3.06117187 52.9430859,1.23070312 50.7230859,0.518085937 C47.1520312,-0.628125 44.1329297,0.542578125 42.5947266,1.38644531 C41.0560547,0.542695312 38.0363672,-0.627773438 34.4658984,0.518085938 C32.2449609,1.2309375 30.4821094,3.06246094 29.6294531,5.54285156 C28.5406641,8.70984375 29.0823047,12.3532031 31.0783594,15.2888672 C32.2180078,16.965 32.9615625,18.8523047 33.22875,20.7474609 C33.2449219,20.8611328 33.2603906,20.9773828 33.2757422,21.0962109 C33.9705469,26.4911719 35.4369141,29.2266797 37.75875,29.4589453 C38.8052344,29.5628906 40.2672656,29.0968359 41.2989844,26.2797656 C41.7860156,24.9498047 42.1682812,23.1817969 42.3755859,21.3017578 C42.4267969,20.8369922 42.5068359,20.4691406 42.5946094,20.1810938 C42.6823828,20.4691406 42.7624219,20.8369922 42.8136328,21.3017578 C43.0209375,23.1816797 43.4032031,24.9496875 43.8902344,26.2796484 C44.8379297,28.8678516 46.1496094,29.4720703 47.1673828,29.4720703 C47.2573828,29.4720703 47.3452734,29.4672656 47.4303516,29.4588281 C49.7521875,29.2265625 51.2186719,26.4910547 51.9137109,21.0945703 C51.9283594,20.9803125 51.9434766,20.8683984 51.9587109,20.7592969 C52.2255469,18.8609766 52.9712109,16.9671094 54.1150781,15.2825391 C56.1082031,12.3471094 56.6478516,8.70503906 55.5587109,5.53992188 Z M51.2104687,13.3062891 C49.7660156,15.4332422 48.8221875,17.8412109 48.4807031,20.2699219 C48.4634766,20.3934375 48.4463672,20.5194141 48.4300781,20.6466797 C48.1085156,23.1442969 47.6477344,24.5929688 47.29125,25.3531641 C46.9352344,24.474375 46.5276562,22.9394531 46.3046484,20.9164453 C46.1433984,19.4535937 45.7361719,18.253125 45.0941016,17.3486719 C44.5203516,16.5401953 43.5858984,16.0573828 42.5947266,16.0573828 C41.6035547,16.0573828 40.6691016,16.5400781 40.0953516,17.3486719 C39.4532813,18.2532422 39.0460547,19.4534766 38.8848047,20.9163281 C38.6617969,22.9394531 38.2542187,24.474375 37.8982031,25.3531641 C37.5417188,24.5929687 37.0809375,23.1444141 36.759375,20.6467969 C36.7422656,20.5133203 36.7245703,20.3828906 36.7066406,20.255625 C36.3646875,17.8307812 35.4225,15.4291406 33.9820313,13.3108594 C32.6060156,11.2871484 32.2205859,8.81097656 32.9506641,6.68707031 C33.4394531,5.26535156 34.3826953,4.23726562 35.5385156,3.86601562 C38.7575391,2.83324219 41.3260547,4.70636719 41.5101562,4.84511719 L42.5752734,5.74136719 L43.6778906,4.8459375 C43.8514453,4.71480469 46.4251172,2.83113281 49.6508203,3.86589844 C50.8060547,4.23679687 51.7490625,5.26429687 52.2380859,6.68507812 C52.9686328,8.80769531 52.5844922,11.2829297 51.2104687,13.3062891 Z" id="Shape" fill="#F2799D"></path>
                    </g>
                </g>
            </g>
        </g>
    </g>
</svg>