<?xml version="1.0" encoding="UTF-8"?>
<svg width="47px" height="60px" viewBox="0 0 47 60" version="1.1" xmlns="http://www.w3.org/2000/svg" xmlns:xlink="http://www.w3.org/1999/xlink">
    <!-- Generator: Sketch 50 (54983) - http://www.bohemiancoding.com/sketch -->
    <title>022-tooth-8</title>
    <desc>Created with Sketch.</desc>
    <defs></defs>
    <g id="Page-1" stroke="none" stroke-width="1" fill="none" fill-rule="evenodd">
        <g id="Leistungen-Cards" transform="translate(-519.000000, -792.000000)" fill="#69BAC2" fill-rule="nonzero">
            <g id="Group-Copy-6" transform="translate(502.000000, 760.000000)">
                <g id="Group-10-Copy-9">
                    <g id="022-tooth-8" transform="translate(17.000000, 32.000000)">
                        <path d="M46.2376608,10.3981287 C45.1204678,5.85333333 42.2880702,2.31426901 38.6608187,0.931345029 C31.7556725,-1.70140351 24.6205848,2.01333333 23.3919298,2.70374269 C22.1631579,2.01333333 15.028538,-1.70163743 8.12304094,0.931345029 C4.49567251,2.31450292 1.66339181,5.85356725 0.54619883,10.3981287 C-0.928070175,16.3957895 0.842690058,22.7918129 5.40444444,27.9464327 L5.92795322,28.5381287 L9.47777778,28.5381287 L10.5546199,33.1053801 L9.18479532,33.5984795 L10.3733333,36.8997661 L11.3650292,36.5426901 L12.4585965,41.1809357 L9.18479532,42.3595322 L10.3733333,45.6608187 L13.2690058,44.6183626 L14.3625731,49.2566082 L9.18479532,51.1205848 L10.3733333,54.4218713 L15.1730994,52.6940351 L16.8680702,59.8833918 L29.4271345,59.8833918 L32.5890058,46.4730994 L39.1608187,44.1072515 L37.9722807,40.8059649 L33.5497076,42.3981287 L34.8461988,36.8995322 L39.1608187,35.3461988 L37.9722807,32.0449123 L35.8070175,32.8244444 L36.8176608,28.5383626 L40.8560234,28.5383626 L41.3796491,27.9466667 C45.9411696,22.7919298 47.7118129,16.3957895 46.2376608,10.3981287 Z M31.8676023,34.2423392 L23.4805848,37.2616374 L24.6691228,40.562924 L30.9069006,38.3173099 L29.6104094,43.8159064 L23.4805848,46.0225731 L24.6691228,49.3238596 L28.6497076,47.8907602 L26.6493567,56.374269 L19.645614,56.374269 L18.4956725,51.4973099 L21.888538,50.2757895 L20.7,46.9745029 L17.6851462,48.059883 L16.5915789,43.4216374 L21.8884211,41.5148538 L20.699883,38.2135673 L15.7810526,39.9843275 L14.6874854,35.3460819 L21.8884211,32.7538012 L20.699883,29.4525146 L13.877076,31.9087719 L13.0822222,28.5378947 L23.4935673,28.5378947 L24.668655,31.8016374 L33.1636257,28.7433918 L31.8676023,34.2423392 Z M39.2559064,25.0294737 L7.5277193,25.0294737 C4.11473684,20.8642105 2.81251462,15.8766082 3.95333333,11.2357895 C4.78304094,7.86035088 6.85976608,5.16818713 9.3728655,4.20982456 C15.1918129,1.99111111 21.7051462,5.78 21.7672515,5.81660819 L21.8388304,5.8594152 L22.0522807,5.96081871 L22.0417544,5.97532164 L28.8617544,10.9044444 L30.9168421,8.06081871 L26.6893567,5.00549708 C29.011345,4.02035088 33.3773099,2.6722807 37.4106433,4.21005848 C39.9237427,5.16842105 42.0005848,7.8605848 42.8301754,11.2360234 C43.9711111,15.8764912 42.6690058,20.8642105 39.2559064,25.0294737 Z" id="Shape"></path>
                    </g>
                </g>
            </g>
        </g>
    </g>
</svg>