<?xml version="1.0" encoding="UTF-8"?>
<svg width="56px" height="60px" viewBox="0 0 56 60" version="1.1" xmlns="http://www.w3.org/2000/svg" xmlns:xlink="http://www.w3.org/1999/xlink">
    <!-- Generator: Sketch 50 (54983) - http://www.bohemiancoding.com/sketch -->
    <title>036-tooth-4</title>
    <desc>Created with Sketch.</desc>
    <defs></defs>
    <g id="Page-1" stroke="none" stroke-width="1" fill="none" fill-rule="evenodd">
        <g id="Leistungen-Cards" transform="translate(-878.000000, -455.000000)" fill="#69BAC2" fill-rule="nonzero">
            <g id="Group-Copy-4" transform="translate(861.000000, 423.000000)">
                <g id="Group-10-Copy-9">
                    <g id="036-tooth-4" transform="translate(17.000000, 32.000000)">
                        <path d="M46.1428125,6.01910156 C44.5091016,3.09808594 44.1786328,0.0301171875 44.1753516,0 L40.6709766,0 C40.6709766,1.95480469 40.3027734,3.80601563 39.7000781,5.14523438 C33.0084375,3.5521875 27.5735156,6.23238281 25.3401562,7.61929687 C22.9550391,6.13828125 16.9215234,3.18328125 9.60386719,5.52867187 C5.57308594,6.82171875 2.4121875,10.2106641 0.931875,14.8265625 C-1.00980469,20.8808203 0.243398438,27.7375781 4.28390625,33.1678125 C6.01546875,35.4960938 7.18628906,38.0616797 7.76355469,40.7939062 C8.01902344,42.0008203 8.24320313,43.3433203 8.42976562,44.7829687 C9.68261719,54.5023828 12.1739062,59.6162109 15.834375,59.9823047 C15.9513281,59.9940234 16.0669922,59.9998828 16.1817187,59.9998828 C18.1699219,59.9997656 19.8217969,58.2424219 21.0945703,54.7692187 C22.0221094,52.2385547 22.7532422,48.8491406 23.1533203,45.2258203 C23.4317578,42.7064062 24.1122656,41.3013281 24.63375,40.5665625 C24.8583984,40.2501562 25.1722266,40.2029297 25.3393359,40.2028125 C25.5067969,40.2028125 25.8213281,40.2500391 26.0460938,40.5662109 C26.5678125,41.3012109 27.2482031,42.7061719 27.5266406,45.2252344 C27.9260156,48.8479687 28.6570312,52.2375 29.5850391,54.7692187 C30.8581641,58.2427734 32.5096875,60 34.4982422,60 C34.6128516,60 34.72875,59.9941406 34.8455859,59.9824219 C38.5060547,59.6162109 40.9973437,54.5023828 42.2501953,44.7830859 C42.4333594,43.3618359 42.6571875,42.0196875 42.9151172,40.7950781 C43.4930859,38.0637891 44.6657812,35.495625 46.4010937,33.1617188 C50.0794922,28.2124219 51.4464844,22.0366406 50.1714844,16.3919531 C51.7071094,15.5170313 53.49,15.0752344 55.5117187,15.0752344 L55.5117187,11.5616016 L55.5118359,11.5616016 C51.3519141,11.5616016 48.1996875,9.69679687 46.1428125,6.01910156 Z M43.5814453,31.0654688 C41.5419141,33.8084766 40.1612109,36.8373047 39.4775391,40.0691016 C39.2000391,41.3858203 38.9605078,42.8208984 38.765625,44.3340234 C37.5493359,53.7697266 35.3298047,56.281875 34.5566016,56.4755859 C34.3851563,56.3660156 33.5871094,55.7265234 32.6585156,52.9112109 C31.9323047,50.7099609 31.3502344,47.8436719 31.0190625,44.8398047 C30.7290234,42.2163281 30.0198047,40.0942969 28.9105078,38.5314844 C28.0903125,37.3780078 26.7556641,36.6894141 25.3396875,36.6894141 C25.3393359,36.6894141 25.3388672,36.6894141 25.3385156,36.6894141 C23.9227734,36.6897656 22.5884766,37.3787109 21.7691016,38.5325391 C20.6603906,40.0944141 19.9511719,42.2165625 19.66125,44.8400391 C19.3296094,47.8440234 18.7471875,50.7103125 18.0213281,52.9109766 C17.0915625,55.7301563 16.2928125,56.3677734 16.1228906,56.4759375 C15.3079688,56.2859766 13.1385938,53.8292578 11.9145703,44.3328516 C11.7159375,42.7996875 11.4759375,41.3642578 11.20125,40.066875 C10.5183984,36.8356641 9.1396875,33.8089453 7.10320313,31.0707422 C3.73792969,26.5478906 2.68171875,20.8763672 4.27769531,15.8995313 C5.40738281,12.3771094 7.73988281,9.8165625 10.6769531,8.874375 C13.7926172,7.87582031 17.0054297,7.93921875 20.2267969,9.06246094 C22.6933594,9.92273438 24.2421094,11.1141797 24.2527734,11.1225 L25.3355859,11.9833594 L26.4232031,11.1261328 C26.4385547,11.1141797 27.9873047,9.92261719 30.45375,9.06246094 C32.7911719,8.24730469 35.1239063,7.99324219 37.4183203,8.29511719 C34.1538281,11.2828125 29.5659375,11.5489453 29.2708594,11.5628906 L29.2661719,15.073125 C29.731875,15.0950391 40.6713281,15.9153516 40.6713281,26.5853906 L44.1757031,26.5809375 C44.1788672,26.5508203 44.5094531,23.5382813 46.1431641,20.6173828 C46.4283984,20.1072656 46.7355469,19.6333594 47.0627344,19.1932031 C47.4271875,23.2672266 46.2089063,27.5301563 43.5814453,31.0654688 Z M43.0146094,19.0137891 C42.9100781,19.2039844 42.81,19.3940625 42.7142578,19.5835547 C41.2211719,16.5590625 38.83125,14.7116016 36.6972656,13.6000781 C36.5080078,13.5015234 36.3185156,13.4075391 36.1298437,13.3182422 C36.3183984,13.2289453 36.5080078,13.1349609 36.6972656,13.0364062 C38.83125,11.925 41.2211719,10.0774219 42.7142578,7.05304687 C42.81,7.24265625 42.9100781,7.43273437 43.0146094,7.62292969 C44.4065625,10.1537109 46.2406641,12.0652734 48.4510547,13.3183594 C46.2405469,14.5714453 44.4064453,16.4830078 43.0146094,19.0137891 Z" id="Shape"></path>
                    </g>
                </g>
            </g>
        </g>
    </g>
</svg>