<?xml version="1.0" encoding="UTF-8"?>
<svg width="78px" height="70px" viewBox="0 0 78 70" version="1.1" xmlns="http://www.w3.org/2000/svg" xmlns:xlink="http://www.w3.org/1999/xlink">
    <!-- Generator: Sketch 50 (54983) - http://www.bohemiancoding.com/sketch -->
    <title>travel</title>
    <desc>Created with Sketch.</desc>
    <defs>
        <polygon id="path-1" points="0 0.0933237277 77.3299274 0.0933237277 77.3299274 69.69027 0 69.69027"></polygon>
    </defs>
    <g id="Page-1" stroke="none" stroke-width="1" fill="none" fill-rule="evenodd">
        <g id="Leistungen-Cards" transform="translate(-814.000000, -2801.000000)">
            <g id="Group-11-Copy-5" transform="translate(747.000000, 2801.000000)">
                <g id="travel" transform="translate(67.000000, 0.000000)">
                    <g id="Group-3" transform="translate(0.000000, 0.052486)">
                        <mask id="mask-2" fill="white">
                            <use xlink:href="#path-1"></use>
                        </mask>
                        <g id="Clip-2"></g>
                        <path d="M74.7522622,63.429095 C74.7522622,65.4603185 73.0999613,67.1126194 71.0687377,67.1126194 L68.8699951,67.1126194 C69.8405561,64.3751623 72.014805,62.2009133 74.7522622,61.2303524 L74.7522622,63.429095 Z M64.4416013,67.1126194 L64.4416013,16.8481476 L66.2073311,16.8481476 C67.3452653,20.9969056 70.602192,24.2551445 74.7522622,25.3930787 L74.7522622,58.5676884 C70.6035042,59.7056226 67.3452653,62.9638614 66.2073311,67.1126194 L64.4416013,67.1126194 Z M56.7086056,67.1126194 L61.8637903,67.1126194 L61.8637903,16.8481476 L56.7086056,16.8481476 L56.7086056,67.1126194 Z M23.1989578,67.1126194 L23.1989578,16.8481476 L24.4877904,16.8481476 L29.6431208,16.8481476 L47.6867774,16.8481476 L52.8421078,16.8481476 L54.1309404,16.8481476 L54.1309404,67.1126194 L23.1989578,67.1126194 Z M15.4659621,67.1126194 L20.6211468,67.1126194 L20.6211468,16.8481476 L15.4659621,16.8481476 L15.4659621,67.1126194 Z M11.1225671,67.1126194 C9.98463288,62.9638614 6.72639406,59.7056226 2.57763606,58.5676884 L2.57763606,25.3930787 C6.72639406,24.2551445 9.98463288,20.9969056 11.1225671,16.8481476 L12.8882969,16.8481476 L12.8882969,67.1126194 L11.1225671,67.1126194 Z M6.26116048,67.1126194 C4.22993696,67.1126194 2.57763606,65.4603185 2.57763606,63.429095 L2.57763606,61.2290402 C5.31509319,62.1996011 7.48934214,64.3738501 8.45990308,67.1113072 L6.26116048,67.1113072 L6.26116048,67.1126194 Z M2.57763606,20.5316721 C2.57763606,18.5004485 4.22993696,16.8481476 6.26116048,16.8481476 L8.45990308,16.8481476 C7.4906543,19.5856048 5.31509319,21.7598537 2.57763606,22.7304147 L2.57763606,20.5316721 Z M15.4659621,14.2704824 L20.6211468,14.2704824 L20.6211468,12.9816498 L15.4659621,12.9816498 L15.4659621,14.2704824 Z M45.1091122,14.2704824 L32.2207861,14.2704824 C32.2207861,10.7171534 35.1116201,7.82631938 38.6649491,7.82631938 C42.2182781,7.82631938 45.1091122,10.7171534 45.1091122,14.2704824 Z M38.6649491,2.67098895 C45.0601249,2.67098895 50.2644426,7.87530668 50.2644426,14.2704824 L47.6867774,14.2704824 C47.6867774,9.29564687 43.6399305,5.24865416 38.6649491,5.24865416 C33.6899678,5.24865416 29.6431208,9.29564687 29.6431208,14.2704824 L27.0654556,14.2704824 C27.0654556,7.87530668 32.2697734,2.67098895 38.6649491,2.67098895 Z M56.7086056,14.2704824 L61.8637903,14.2704824 L61.8637903,12.9816498 L56.7086056,12.9816498 L56.7086056,14.2704824 Z M71.0687377,16.8481476 C73.0999613,16.8481476 74.7522622,18.5004485 74.7522622,20.5316721 L74.7522622,22.7304147 C72.014805,21.7598537 69.8392439,19.5856048 68.8699951,16.8481476 L71.0687377,16.8481476 Z M71.0687377,14.2704824 L65.6608894,14.2704824 L64.4416013,14.2704824 L64.4416013,10.4039846 L54.1309404,10.4039846 L54.1309404,14.2704824 L52.8421078,14.2704824 C52.8421078,6.45365433 46.4817772,0.0933237277 38.6649491,0.0933237277 C30.848121,0.0933237277 24.4877904,6.45365433 24.4877904,14.2704824 L23.1989578,14.2704824 L23.1989578,10.4039846 L12.8882969,10.4039846 L12.8882969,14.2704824 L11.6690088,14.2704824 L6.26116048,14.2704824 C2.80974256,14.2704824 -2.91591088e-05,17.0801084 -2.91591088e-05,20.5316721 L-2.91591088e-05,25.9395204 L-2.91591088e-05,58.0212467 L-2.91591088e-05,63.429095 C-2.91591088e-05,66.8819708 2.80974256,69.6902846 6.26116048,69.6902846 L11.6690088,69.6902846 L12.8882969,69.6902846 L23.1989578,69.6902846 L54.1309404,69.6902846 L64.4416013,69.6902846 L65.6608894,69.6902846 L71.0687377,69.6902846 C74.5201557,69.6902846 77.3299274,66.8819708 77.3299274,63.429095 L77.3299274,58.0212467 L77.3299274,25.9395204 L77.3299274,20.5316721 C77.3299274,17.0801084 74.5201557,14.2704824 71.0687377,14.2704824 Z" id="Fill-1" fill="#69BAC2" mask="url(#mask-2)"></path>
                    </g>
                    <path d="M48.9756391,37.5219266 L48.9756391,47.8325875 L40.5209555,47.8325875 L41.0840179,46.4960797 L32.2208152,42.757153 L32.2208152,37.5219266 L32.6617009,37.5219266 L47.401922,37.5219266 L48.9756391,37.5219266 Z M35.6671303,52.7018671 L27.2305253,49.1421231 L29.2693302,44.3090008 L29.6430042,44.4661684 L37.7073931,47.8687448 L36.6349211,50.4102527 L35.6671303,52.7018671 Z M33.1706732,32.5199731 L45.1773736,26.9148634 L48.5516657,34.1413653 L46.8283624,34.9442614 L34.3021924,34.9442614 L33.1706732,32.5199731 Z M46.4223218,23.4879391 L29.7450611,31.2750249 L31.4578671,34.9442614 L29.6430042,34.9442614 L29.6430042,41.6693725 L27.896811,40.9322302 L23.853609,50.5159545 L37.0397953,56.079804 L39.433175,50.4102527 L51.5533044,50.4102527 L51.5533044,35.5835749 L51.9772778,35.3851471 L46.4223218,23.4879391 Z" id="Fill-4" fill="#F2799D"></path>
                </g>
            </g>
        </g>
    </g>
</svg>