<?xml version="1.0" encoding="UTF-8"?>
<svg width="16px" height="16px" viewBox="0 0 16 16" version="1.1" xmlns="http://www.w3.org/2000/svg" xmlns:xlink="http://www.w3.org/1999/xlink">
    <!-- Generator: Sketch 50 (54983) - http://www.bohemiancoding.com/sketch -->
    <title>006-facebook</title>
    <desc>Created with Sketch.</desc>
    <defs></defs>
    <g id="Page-1" stroke="none" stroke-width="1" fill="none" fill-rule="evenodd">
        <g id="Leistungen-Cards" transform="translate(-565.000000, -3557.000000)" fill="#FFFFFF" fill-rule="nonzero">
            <g id="006-facebook" transform="translate(565.000000, 3557.000000)">
                <path d="M7.94307965,15.8861593 C3.55623789,15.8861593 0,12.3299214 0,7.94307965 C0,3.55623789 3.55623789,0 7.94307965,0 C12.3299214,0 15.8861593,3.55623789 15.8861593,7.94307965 C15.8861593,12.3299214 12.3299214,15.8861593 7.94307965,15.8861593 Z M9.9399646,8.2540177 L10.1275752,6.43086726 L8.52276106,6.43086726 L8.52276106,5.35688496 C8.52276106,4.9540531 8.78895575,4.85946903 8.97826549,4.85946903 L10.1323894,4.85946903 L10.1323894,3.08814159 L8.54173451,3.08148673 C6.77635398,3.08148673 6.37522124,4.40382301 6.37522124,5.24828319 L6.37522124,6.42916814 L5.3539115,6.42916814 L5.3539115,8.2540177 L6.37522124,8.2540177 L6.37522124,13.4465133 L8.52261947,13.4465133 L8.52261947,8.2540177 L9.9399646,8.2540177 Z" id="Combined-Shape"></path>
            </g>
        </g>
    </g>
</svg>