<?xml version="1.0" encoding="UTF-8"?>
<svg width="134px" height="40px" viewBox="0 0 134 40" version="1.1" xmlns="http://www.w3.org/2000/svg" xmlns:xlink="http://www.w3.org/1999/xlink">
    <!-- Generator: Sketch 50 (54983) - http://www.bohemiancoding.com/sketch -->
    <title>Group 17</title>
    <desc>Created with Sketch.</desc>
    <defs></defs>
    <g id="Page-1" stroke="none" stroke-width="1" fill="none" fill-rule="evenodd">
        <g id="Leistungen-Cards" transform="translate(-487.000000, -3208.000000)" fill-rule="nonzero">
            <g id="Group-17" transform="translate(487.000000, 3208.000000)">
                <g id="austria" opacity="0.300000012" transform="translate(88.000000, 5.000000)">
                    <g id="Group" fill="#FF4B55">
                        <path d="M42.290625,0.0246428571 L3.42366071,0.0246428571 C1.53276786,0.0246428571 0,1.55741071 0,3.44830357 L0,10.0082143 L45.7142857,10.0082143 L45.7142857,3.44830357 C45.7142857,1.55741071 44.1815179,0.0246428571 42.290625,0.0246428571 Z" id="Shape"></path>
                        <path d="M0,26.5516964 C0,28.4425 1.53276786,29.9753571 3.42366071,29.9753571 L42.290625,29.9753571 C44.1814286,29.9753571 45.7142857,28.4425893 45.7142857,26.5516964 L45.7142857,19.9917857 L0,19.9917857 L0,26.5516964 Z" id="Shape"></path>
                    </g>
                    <rect id="Rectangle-path" fill="#F5F5F5" x="0" y="10.0080357" width="45.7142857" height="9.98303571"></rect>
                </g>
                <g id="switzerland" opacity="0.300000012" transform="translate(0.000000, 5.000000)">
                    <path d="M42.290625,29.9753571 L3.42366071,29.9753571 C1.53276786,29.9753571 0,28.4425893 0,26.5516964 L0,3.44830357 C0,1.5575 1.53276786,0.0246428571 3.42366071,0.0246428571 L42.290625,0.0246428571 C44.1814286,0.0246428571 45.7142857,1.55741071 45.7142857,3.44830357 L45.7142857,26.5517857 C45.7142857,28.4425893 44.1815179,29.9753571 42.290625,29.9753571 Z" id="Shape" fill="#FF4B55"></path>
                    <path d="M31.5270536,11.8473214 L26.0098214,11.8473214 L26.0098214,6.33008929 C26.0098214,5.89482143 25.656875,5.541875 25.2216071,5.541875 L20.4925,5.541875 C20.0572321,5.541875 19.7042857,5.89482143 19.7042857,6.33008929 L19.7042857,11.8473214 L14.1870536,11.8473214 C13.7517857,11.8473214 13.3988393,12.2002679 13.3988393,12.6355357 L13.3988393,17.3646429 C13.3988393,17.7999107 13.7517857,18.1528571 14.1870536,18.1528571 L19.7042857,18.1528571 L19.7042857,23.6700893 C19.7042857,24.1053571 20.0572321,24.4583036 20.4925,24.4583036 L25.2216071,24.4583036 C25.656875,24.4583036 26.0098214,24.1053571 26.0098214,23.6700893 L26.0098214,18.1526786 L31.5270536,18.1526786 C31.9623214,18.1526786 32.3152679,17.7997321 32.3152679,17.3644643 L32.3152679,12.6353571 C32.3152679,12.2001786 31.9623214,11.8473214 31.5270536,11.8473214 Z" id="Shape" fill="#F5F5F5"></path>
                </g>
                <g id="germany-(1)" transform="translate(38.000000, 0.000000)">
                    <path d="M56.3875,0.0328571429 L4.56488095,0.0328571429 C2.04369048,0.0328571429 0,2.07654762 0,4.5977381 L0,13.3442857 L60.952381,13.3442857 L60.952381,4.5977381 C60.952381,2.07654762 58.9086905,0.0328571429 56.3875,0.0328571429 Z" id="Shape" fill="#464655"></path>
                    <path d="M0,35.4022619 C0,37.9233333 2.04369048,39.9671429 4.56488095,39.9671429 L56.3875,39.9671429 C58.9085714,39.9671429 60.952381,37.9234524 60.952381,35.4022619 L60.952381,26.6557143 L0,26.6557143 L0,35.4022619 Z" id="Shape" fill="#FFE15A"></path>
                    <rect id="Rectangle-path" fill="#FF4B55" x="0" y="13.3440476" width="60.952381" height="13.3107143"></rect>
                </g>
            </g>
        </g>
    </g>
</svg>