<?xml version="1.0" encoding="UTF-8"?>
<svg width="60px" height="60px" viewBox="0 0 60 60" version="1.1" xmlns="http://www.w3.org/2000/svg" xmlns:xlink="http://www.w3.org/1999/xlink">
    <!-- Generator: Sketch 50 (54983) - http://www.bohemiancoding.com/sketch -->
    <title>Page 1</title>
    <desc>Created with Sketch.</desc>
    <defs>
        <polygon id="path-1" points="2.34375e-05 0.105515625 13.3947891 0.105515625 13.3947891 17.34375 2.34375e-05 17.34375"></polygon>
        <polygon id="path-3" points="0 0.0144140625 17.2275938 0.0144140625 17.2275938 27.7000781 0 27.7000781"></polygon>
        <polygon id="path-5" points="0.116144531 0.0439453125 17.34375 0.0439453125 17.34375 26.3377734 0.116144531 26.3377734"></polygon>
    </defs>
    <g id="Page-1" stroke="none" stroke-width="1" fill="none" fill-rule="evenodd">
        <g id="Leistungen-Cards" transform="translate(-209.000000, -3208.000000)">
            <g id="Page-1" transform="translate(209.000000, 3208.000000)">
                <path d="M43.3947422,53.3787891 L42.3399375,57.1757812 C38.5778672,58.8983203 34.3945078,60 29.9999766,60 C25.6054453,60 21.4220859,58.8983203 17.6601328,57.1756641 L16.2190781,52.9216406 L20.5431797,43.9920703 L24.1991953,42.7617188 C25.9570078,43.5701953 27.9255234,44.0625 30.0000938,44.0625 C32.0746641,44.0625 34.0431797,43.5703125 35.8009922,42.7617188 L38.9298984,43.640625 L43.3947422,53.3787891 Z" id="Fill-1" fill="#FD3C65"></path>
                <g id="Group-5" transform="translate(30.000000, 42.656250)">
                    <mask id="mask-2" fill="white">
                        <use xlink:href="#path-1"></use>
                    </mask>
                    <g id="Clip-4"></g>
                    <path d="M8.92982813,0.984421875 L13.3947891,10.7225859 L12.3399844,14.5195781 C8.57791406,16.242 4.39455469,17.3437969 2.34375e-05,17.3437969 L2.34375e-05,1.40629687 C2.07459375,1.40629687 4.04310938,0.913992187 5.80092188,0.105515625 L8.92982813,0.984421875 Z" id="Fill-3" fill="#FD003A" mask="url(#mask-2)"></path>
                </g>
                <g id="Group-8" transform="translate(0.000000, 16.289062)">
                    <mask id="mask-4" fill="white">
                        <use xlink:href="#path-3"></use>
                    </mask>
                    <g id="Clip-7"></g>
                    <path d="M17.2274766,7.90511719 L15.7906406,4.77527344 L5.90294531,0.0144140625 L2.8224375,1.3575 C1.10165625,5.128125 -2.34375e-05,9.18550781 -2.34375e-05,13.59375 C-2.34375e-05,18.0019922 1.10165625,22.2936328 2.82255469,26.0641406 L6.48923438,27.7000781 L16.3040391,23.0126953 L17.2275938,19.5166406 C16.4168906,17.7416016 15.9374766,15.7863281 15.9374766,13.7109375 C15.9374766,11.6355469 16.4168906,9.68015625 17.2274766,7.90511719" id="Fill-6" fill="#FD3C65" mask="url(#mask-4)"></path>
                </g>
                <g id="Group-11" transform="translate(42.656250, 16.992188)">
                    <mask id="mask-6" fill="white">
                        <use xlink:href="#path-5"></use>
                    </mask>
                    <g id="Clip-10"></g>
                    <path d="M14.5211836,0.654375 L8.36450391,0.0439453125 L1.69887891,3.55957031 L0.116144531,7.20199219 C0.926847656,8.97703125 1.40626172,10.9324219 1.40626172,13.0078125 C1.40626172,15.0832031 0.926847656,17.0384766 0.116261719,18.8133984 L0.820089844,21.796875 L11.1472383,26.3377734 L14.5213008,25.3610156 C16.242082,21.5905078 17.3437617,17.4160547 17.3437617,13.0078125 C17.3437617,8.59957031 16.242082,4.425 14.5211836,0.654375" id="Fill-9" fill="#FD003A" mask="url(#mask-6)"></path>
                </g>
                <path d="M43.6406719,6.93752344 L39.2108672,16.5350625 L35.8009453,17.2381875 C34.0431328,16.4297109 32.0746172,15.9374062 30.0000469,15.9374062 C27.9253594,15.9374062 25.9569609,16.3944375 24.1991484,17.2030312 L20.5430156,14.9881875 L16.2189141,7.00760156 L17.6600859,2.82400781 C21.4220391,1.10146875 25.6055156,2.34375e-05 30.0000469,2.34375e-05 C34.3945781,2.34375e-05 38.5779375,1.10146875 42.3397734,2.824125 L43.6406719,6.93752344 Z" id="Fill-12" fill="#FD3C65"></path>
                <path d="M35.8008984,17.238293 C34.0430859,16.4298164 32.0745703,15.9375117 30,15.9375117 L30,1.171875e-05 C34.3945312,1.171875e-05 38.5778906,1.10145703 42.3398438,2.82411328 L43.640625,6.93751172 L39.2109375,16.5350508 L35.8008984,17.238293 Z" id="Fill-14" fill="#FD003A"></path>
                <path d="M42.7725234,24.1941797 L57.1774453,17.6465625 C54.1861172,11.0937891 48.906,5.81390625 42.3532266,2.82292969 L35.8056094,17.2270313 C38.8877578,18.6343359 41.3656875,21.1120313 42.7725234,24.1941797" id="Fill-16" fill="#B7E0F6"></path>
                <path d="M2.82256641,17.6465625 L17.2274883,24.1941797 C18.634207,21.1128516 21.1156523,18.6269531 24.1883086,17.2146094 L17.6467852,2.82304688 C11.1030352,5.81824219 5.81330859,11.0949609 2.82256641,17.6465625" id="Fill-18" fill="#CAE8F9"></path>
                <path d="M17.2274766,35.8055859 L2.82255469,42.3532031 C5.81376562,48.9059766 11.0944687,54.1860937 17.6467734,57.1770703 L24.1943906,42.7727344 C21.1122422,41.3653125 18.6343125,38.8877344 17.2274766,35.8055859" id="Fill-20" fill="#CAE8F9"></path>
                <path d="M35.8055859,42.7727461 L42.3532031,57.177082 C48.9055078,54.1861055 54.1862109,48.9059883 57.1774219,42.3532148 L42.7725,35.8055977 C41.3656641,38.8877461 38.8877344,41.3653242 35.8055859,42.7727461" id="Fill-22" fill="#B7E0F6"></path>
            </g>
        </g>
    </g>
</svg>