<?xml version="1.0" encoding="UTF-8"?>
<svg width="16px" height="16px" viewBox="0 0 16 16" version="1.1" xmlns="http://www.w3.org/2000/svg" xmlns:xlink="http://www.w3.org/1999/xlink">
    <!-- Generator: Sketch 50 (54983) - http://www.bohemiancoding.com/sketch -->
    <title>004-instagram</title>
    <desc>Created with Sketch.</desc>
    <defs></defs>
    <g id="Page-1" stroke="none" stroke-width="1" fill="none" fill-rule="evenodd">
        <g id="Leistungen-Cards" transform="translate(-616.000000, -3557.000000)" fill="#FFFFFF" fill-rule="nonzero">
            <g id="004-instagram" transform="translate(616.000000, 3557.000000)">
                <path d="M10.3564444,4.24533333 L5.60053333,4.24533333 C4.84142222,4.24533333 4.22382222,4.86293333 4.22382222,5.62204444 L4.22382222,10.3779556 C4.22382222,11.1370667 4.84142222,11.7548444 5.60053333,11.7548444 L10.3564444,11.7548444 C11.1155556,11.7548444 11.7333333,11.1372444 11.7333333,10.3779556 L11.7333333,5.62204444 C11.7333333,4.86293333 11.1157333,4.24533333 10.3564444,4.24533333 Z M7.97848889,10.4721778 C6.61546667,10.4721778 5.50648889,9.3632 5.50648889,8 C5.50648889,6.63697778 6.61546667,5.528 7.97848889,5.528 C9.34168889,5.528 10.4506667,6.63697778 10.4506667,8 C10.4506667,9.36302222 9.34151111,10.4721778 7.97848889,10.4721778 Z M10.5301333,6.03911111 C10.2074667,6.03911111 9.94506667,5.77671111 9.94506667,5.45422222 C9.94506667,5.13173333 10.2074667,4.86933333 10.5301333,4.86933333 C10.8526222,4.86933333 11.1150222,5.13173333 11.1150222,5.45422222 C11.1150222,5.77671111 10.8526222,6.03911111 10.5301333,6.03911111 Z" id="Shape"></path>
                <path d="M7.97848889,6.57262222 C7.19164444,6.57262222 6.55093333,7.21297778 6.55093333,7.99982222 C6.55093333,8.78702222 7.19164444,9.42755556 7.97848889,9.42755556 C8.76568889,9.42755556 9.40586667,8.78702222 9.40586667,7.99982222 C9.40586667,7.21315556 8.76551111,6.57262222 7.97848889,6.57262222 Z" id="Shape"></path>
                <path d="M7.97848889,0 C3.57226667,0 0,3.57226667 0,7.97848889 C0,12.3847111 3.57226667,15.9569778 7.97848889,15.9569778 C12.3847111,15.9569778 15.9569778,12.3847111 15.9569778,7.97848889 C15.9569778,3.57226667 12.3847111,0 7.97848889,0 Z M12.7777778,10.3779556 C12.7777778,11.7132444 11.6917333,12.7992889 10.3564444,12.7992889 L5.60053333,12.7992889 C4.26542222,12.7992889 3.1792,11.7132444 3.1792,10.3779556 L3.1792,5.62204444 C3.1792,4.28693333 4.26542222,3.20071111 5.60053333,3.20071111 L10.3564444,3.20071111 C11.6917333,3.20071111 12.7777778,4.28693333 12.7777778,5.62204444 L12.7777778,10.3779556 Z" id="Shape"></path>
            </g>
        </g>
    </g>
</svg>