<?xml version="1.0" encoding="UTF-8"?>
<svg width="15px" height="15px" viewBox="0 0 15 15" version="1.1" xmlns="http://www.w3.org/2000/svg" xmlns:xlink="http://www.w3.org/1999/xlink">
    <!-- Generator: Sketch 50 (54983) - http://www.bohemiancoding.com/sketch -->
    <title>Group 27</title>
    <desc>Created with Sketch.</desc>
    <defs></defs>
    <g id="Page-1" stroke="none" stroke-width="1" fill="none" fill-rule="evenodd">
        <g id="Leistungen-Cards" transform="translate(-767.000000, -3740.000000)">
            <g id="Group-27" transform="translate(765.000000, 3739.000000)">
                <g id="ic_language_black_24px">
                    <polygon id="Shape" points="0 0 17 0 17 17 0 17"></polygon>
                    <path d="M9.07625,1 C5.16625,1 2,4.17333333 2,8.08333333 C2,11.9933333 5.16625,15.1666667 9.07625,15.1666667 C12.9933333,15.1666667 16.1666667,11.9933333 16.1666667,8.08333333 C16.1666667,4.17333333 12.9933333,1 9.07625,1 Z M13.985,5.25 L11.8954167,5.25 C11.66875,4.36458333 11.3429167,3.51458333 10.9179167,2.72833333 C12.22125,3.17458333 13.305,4.08125 13.985,5.25 Z M9.08333333,2.445 C9.67125,3.295 10.1316667,4.23708333 10.43625,5.25 L7.73041667,5.25 C8.035,4.23708333 8.49541667,3.295 9.08333333,2.445 Z M3.60083333,9.5 C3.4875,9.04666667 3.41666667,8.57208333 3.41666667,8.08333333 C3.41666667,7.59458333 3.4875,7.12 3.60083333,6.66666667 L5.995,6.66666667 C5.93833333,7.13416667 5.89583333,7.60166667 5.89583333,8.08333333 C5.89583333,8.565 5.93833333,9.0325 5.995,9.5 L3.60083333,9.5 Z M4.18166667,10.9166667 L6.27125,10.9166667 C6.49791667,11.8020833 6.82375,12.6520833 7.24875,13.4383333 C5.94541667,12.9920833 4.86166667,12.0925 4.18166667,10.9166667 Z M6.27125,5.25 L4.18166667,5.25 C4.86166667,4.07416667 5.94541667,3.17458333 7.24875,2.72833333 C6.82375,3.51458333 6.49791667,4.36458333 6.27125,5.25 Z M9.08333333,13.7216667 C8.49541667,12.8716667 8.035,11.9295833 7.73041667,10.9166667 L10.43625,10.9166667 C10.1316667,11.9295833 9.67125,12.8716667 9.08333333,13.7216667 Z M10.7408333,9.5 L7.42583333,9.5 C7.36208333,9.0325 7.3125,8.565 7.3125,8.08333333 C7.3125,7.60166667 7.36208333,7.12708333 7.42583333,6.66666667 L10.7408333,6.66666667 C10.8045833,7.12708333 10.8541667,7.60166667 10.8541667,8.08333333 C10.8541667,8.565 10.8045833,9.0325 10.7408333,9.5 Z M10.9179167,13.4383333 C11.3429167,12.6520833 11.66875,11.8020833 11.8954167,10.9166667 L13.985,10.9166667 C13.305,12.0854167 12.22125,12.9920833 10.9179167,13.4383333 Z M12.1716667,9.5 C12.2283333,9.0325 12.2708333,8.565 12.2708333,8.08333333 C12.2708333,7.60166667 12.2283333,7.13416667 12.1716667,6.66666667 L14.5658333,6.66666667 C14.6791667,7.12 14.75,7.59458333 14.75,8.08333333 C14.75,8.57208333 14.6791667,9.04666667 14.5658333,9.5 L12.1716667,9.5 Z" id="Shape" fill="#5E6885" fill-rule="nonzero"></path>
                </g>
            </g>
        </g>
    </g>
</svg>