<?xml version="1.0" encoding="UTF-8"?>
<svg width="50px" height="70px" viewBox="0 0 50 70" version="1.1" xmlns="http://www.w3.org/2000/svg" xmlns:xlink="http://www.w3.org/1999/xlink">
    <!-- Generator: Sketch 50 (54983) - http://www.bohemiancoding.com/sketch -->
    <title>question</title>
    <desc>Created with Sketch.</desc>
    <defs></defs>
    <g id="Page-1" stroke="none" stroke-width="1" fill="none" fill-rule="evenodd">
        <g id="Leistungen-Cards" transform="translate(-202.000000, -2804.000000)">
            <g id="Group-11-Copy-4" transform="translate(147.000000, 2804.000000)">
                <g id="question" transform="translate(55.000000, 0.000000)">
                    <path d="M10.3643405,67.2480572 L17.3529555,60.5611449 L21.4576061,69.9180191 L27.8615832,67.1086798 L23.7569327,57.7518056 L33.4099949,57.1384384 L10.3797281,35.9611703 L10.3643405,67.2480572 Z M12.3668564,40.4911576 L28.6331842,55.4486544 L20.7926506,55.9469263 L25.2406302,66.086075 L22.4802999,67.2969771 L18.0323202,57.1578285 L12.3559161,62.5890991 L12.3668564,40.4911576 Z" id="Fill-1" fill="#F2799D"></path>
                    <polygon id="Fill-2" fill="#F2799D" points="22.8354973 35.833789 26.5240061 35.833789 26.5240061 32.1452802 22.8354973 32.1452802"></polygon>
                    <g id="Group-10" transform="translate(0.000000, 0.006938)">
                        <path d="M32.0564711,21.0738143 C32.0564711,25.6840614 26.524032,26.1452222 26.524032,30.2943732 L22.8354584,30.2943732 C22.8354584,24.3011622 28.3680271,24.7618045 28.3680271,21.0738143 C28.3680271,19.0451604 26.7086259,17.3853055 24.679972,17.3853055 C22.651383,17.3853055 20.9914633,19.0451604 20.9914633,21.0738143 L17.303473,21.0738143 C17.303473,16.9982286 20.6044511,13.6972504 24.679972,13.6972504 C28.7550392,13.6972504 32.0564711,16.9982286 32.0564711,21.0738143" id="Fill-3" fill="#F2799D"></path>
                        <g id="Group-9" fill="#69BAC2">
                            <path d="M47.4185693,15.1591182 C46.1751131,12.2203634 44.3953164,9.58135451 42.1280991,7.31324778 C39.8607929,5.0460305 37.2209835,3.2662338 34.2830292,2.02277764 C31.2402084,0.734848793 28.0098018,0.0819898348 24.6796874,0.0819898348 C21.3495731,0.0819898348 18.1190775,0.734848793 15.0762567,2.02277764 C12.1383914,3.2662338 9.49849301,5.0460305 7.23127573,7.31324778 C4.9639695,9.58135451 3.18426175,12.2203634 1.94080559,15.1591182 C0.652876747,18.2010496 1.77890724e-05,21.4315451 1.77890724e-05,24.7616595 C1.77890724e-05,28.0917738 0.652876747,31.3231588 1.94080559,34.3650902 C3.18426175,37.3029555 4.9639695,39.9428539 7.23127573,42.2100712 C7.24194917,42.2207446 7.25262262,42.231418 7.26329606,42.2420915 L7.26685388,36.258737 C5.08146633,32.9597535 3.8076798,29.0061321 3.8076798,24.7616595 C3.8076798,13.2530191 13.171047,3.88974079 24.6796874,3.88974079 C36.1883278,3.88974079 45.5516061,13.2530191 45.5516061,24.7616595 C45.5516061,35.999906 36.6241601,45.1924091 25.4890902,45.6193469 L29.1972224,49.0295121 C30.9378831,48.7075299 32.63754,48.1969835 34.2830292,47.5014307 C37.2209835,46.2579746 39.8607929,44.4772884 42.1280991,42.2100712 C44.3953164,39.9428539 46.1751131,37.3029555 47.4185693,34.3650902 C48.7064091,31.3231588 49.3592681,28.0917738 49.3592681,24.7616595 C49.3592681,21.4315451 48.7064091,18.2010496 47.4185693,15.1591182 Z M15.4765108,47.572587 L15.4765108,47.6668691 C15.5369936,47.6908844 15.5964981,47.7148996 15.6570699,47.7380254 L15.4765108,47.572587 Z" id="Fill-7"></path>
                        </g>
                    </g>
                </g>
            </g>
        </g>
    </g>
</svg>