<?xml version="1.0" encoding="UTF-8"?>
<svg width="60px" height="58px" viewBox="0 0 60 58" version="1.1" xmlns="http://www.w3.org/2000/svg" xmlns:xlink="http://www.w3.org/1999/xlink">
    <!-- Generator: Sketch 50 (54983) - http://www.bohemiancoding.com/sketch -->
    <title>016-tooth-10</title>
    <desc>Created with Sketch.</desc>
    <defs></defs>
    <g id="Page-1" stroke="none" stroke-width="1" fill="none" fill-rule="evenodd">
        <g id="Leistungen-Cards" transform="translate(-519.000000, -1852.000000)" fill="#69BAC2" fill-rule="nonzero">
            <g id="Group-Copy-15" transform="translate(502.000000, 1818.000000)">
                <g id="Group-10-Copy-9">
                    <g id="016-tooth-10" transform="translate(17.000000, 34.000000)">
                        <path d="M59.9998828,25.5377344 L59.9998828,16.4615625 L54.4654687,15.8646094 C54.1989844,15.0782812 53.8723828,14.3128125 53.4880078,13.5733594 L56.9064844,9.3028125 L50.4788672,2.89453125 L46.1513672,6.3796875 C45.4140234,6.01476563 44.6511328,5.7065625 43.8680859,5.45707031 L43.2744141,0.020390625 L34.1976563,0.020390625 L33.5944922,5.54308594 C32.8074609,5.80875 32.0414063,6.13417969 31.3014844,6.51714844 L27.035625,3.09339844 L20.6183203,9.51234375 L24.0986719,13.845 C24.0379688,13.9674609 23.9791406,14.0907422 23.9214844,14.2146094 C22.2390234,14.6882812 20.9003906,15.3660937 20.0373047,15.8811328 C18.0004688,14.6657812 13.3241016,12.5397656 7.700625,14.3431641 C4.54359375,15.3556641 2.03027344,17.9771484 0.80578125,21.5356641 C-0.787148437,26.1646875 0.0116015625,31.4989453 2.94222656,35.8047656 C4.79636719,38.5290234 6.00679688,41.6015625 6.44296875,44.690625 C6.46851562,44.8708594 6.49335937,45.0549609 6.51761719,45.2436328 C7.516875,52.9953516 9.56941406,57.0803906 12.6179297,57.3853125 C14.4853125,57.571875 15.9958594,56.1237891 17.1108984,53.0817187 C17.8416797,51.0878906 18.4169531,48.4239844 18.7306641,45.5806641 C18.9373828,43.7080078 19.4315625,42.6802734 19.8099609,42.1480078 C19.8650391,42.0705469 19.9414453,42.0312891 20.0370703,42.0312891 C20.1326953,42.0312891 20.2092188,42.0705469 20.2641797,42.1480078 C20.6425781,42.6802734 21.1367578,43.7080078 21.3434766,45.5806641 C21.6573047,48.4239844 22.2324609,51.0878906 22.9632422,53.0817188 C24.0147656,55.9503516 25.4183203,57.40125 27.1398047,57.40125 C27.2439844,57.40125 27.3496875,57.3959766 27.4562109,57.3853125 C30.5049609,57.0802734 32.5571484,52.9953516 33.5562891,45.2442188 C33.5798437,45.0621094 33.6038672,44.88375 33.6283594,44.7096094 C33.7819922,43.6177734 34.0345312,42.5278125 34.37625,41.4536719 L34.4683594,42.2900391 L43.5444141,42.28125 L44.1439453,36.7586719 C44.9300391,36.4924219 45.6957422,36.1662891 46.4354297,35.7826172 L50.7039844,39.2027344 L57.1157812,32.7785156 L53.6325,28.4489063 C54.001875,27.7020703 54.3132422,26.9302734 54.5644922,26.1391406 L59.9998828,25.5377344 Z M34.2312891,33.8191406 C32.0694141,36.9994922 30.6574219,40.5959766 30.1474219,44.2202344 C30.1211719,44.4075 30.0953906,44.5985156 30.0700781,44.7941016 C29.6920312,47.7267187 29.1350391,50.1580078 28.4589844,51.8248828 C27.9215625,53.1503906 27.4642969,53.6337891 27.2451562,53.8025391 C26.5927734,53.0916797 25.389375,50.1982031 24.8373047,45.195 C24.6050391,43.0898438 24.0304688,41.3796094 23.1296484,40.1119922 C22.4197266,39.1127344 21.2635547,38.5161328 20.0369531,38.5161328 C18.8104688,38.5161328 17.6544141,39.1126172 16.944375,40.111875 C16.0435547,41.3797266 15.4689844,43.0898438 15.2367188,45.195 C14.6846484,50.1973828 13.4817188,53.0907422 12.8292188,53.8020703 C12.6087891,53.6328516 12.1521094,53.1491016 11.6150391,51.8248828 C10.9389844,50.1578906 10.381875,47.7267187 10.0039453,44.7945703 C9.97769531,44.5911328 9.95085938,44.3921484 9.92332031,44.1984375 C9.41273438,40.5800391 8.00332031,36.9935156 5.84789063,33.8266406 C3.53777344,30.4325391 2.89523438,26.2652344 4.12933594,22.6791797 C4.98972656,20.1792188 6.6825,18.3608203 8.77371094,17.6901562 C14.3692969,15.8957812 18.7703906,19.2310547 18.9491016,19.3692187 L20.0370703,20.2267969 L21.1250391,19.3693359 C21.1696875,19.3341797 25.6468359,15.8771484 31.3005469,17.6901562 C33.3907031,18.3603516 35.0830078,20.1776953 35.9436328,22.6760156 C37.1779687,26.2597266 36.5377734,30.4253906 34.2312891,33.8191406 Z M36.1079297,16.5533203 C36.9491016,16.0317188 37.9264453,15.7469531 38.9424609,15.7469531 C41.9126953,15.7469531 44.3289844,18.1632422 44.3289844,21.1333594 C44.3289844,23.7158203 42.5020313,25.87875 40.0729687,26.3996484 C40.0705078,24.7408594 39.8057813,23.0956641 39.2669531,21.5312109 C38.5804687,19.5385547 37.4894531,17.8400391 36.1079297,16.5533203 Z M52.4012109,32.5260937 L50.4424219,34.48875 L46.7353125,31.5183984 L45.6798047,32.1718359 C44.5596094,32.8654687 43.3505859,33.3813281 42.0864844,33.7051172 L40.9066406,34.0073437 L40.3898437,38.7690234 L37.6170703,38.7716016 L37.2676172,35.5992187 C38.4171094,33.8576953 39.2224219,31.9552734 39.6665625,30.0032812 C44.2373437,29.6332031 47.8441406,25.7980078 47.8441406,21.1335937 C47.8441406,16.2251953 43.8508594,12.2320312 38.9424609,12.2320312 C36.7053516,12.2320312 34.5803906,13.0645312 32.9520703,14.5494141 C32.7617578,14.4746484 32.5689844,14.4057422 32.37375,14.3430469 C30.9261328,13.8788672 29.5419141,13.6764844 28.24875,13.6504687 L28.3347656,13.505625 L25.3325391,9.76839844 L27.2928516,7.8075 L30.9980859,10.78125 L32.0541797,10.1282812 C33.1736719,9.43605469 34.3831641,8.92125 35.6491406,8.59828125 L36.8295703,8.29710937 L37.3497656,3.53554688 L40.1220703,3.53554688 L40.6378125,8.25761719 L41.8470703,8.54261719 C43.11375,8.84097656 44.3248828,9.32929687 45.4471875,9.99421875 L46.4960156,10.6155469 L50.2289062,7.60910156 L52.1926172,9.56671875 L49.2227344,13.2766406 L49.8779297,14.3321484 C50.5725,15.4510547 51.0888281,16.6590234 51.4123828,17.9226562 L51.7147266,19.1030859 L56.4778125,19.6177734 L56.4810937,22.3905469 L51.7599609,22.9128516 L51.4766016,24.1223437 C51.1789453,25.393125 50.6881641,26.6121094 50.0178516,27.7455469 L49.3981641,28.7934375 L52.4012109,32.5260937 Z" id="Shape"></path>
                    </g>
                </g>
            </g>
        </g>
    </g>
</svg>