<?xml version="1.0" encoding="UTF-8"?>
<svg width="60px" height="60px" viewBox="0 0 60 60" version="1.1" xmlns="http://www.w3.org/2000/svg" xmlns:xlink="http://www.w3.org/1999/xlink">
    <!-- Generator: Sketch 50 (54983) - http://www.bohemiancoding.com/sketch -->
    <title>025-tooth-5</title>
    <desc>Created with Sketch.</desc>
    <defs></defs>
    <g id="Page-1" stroke="none" stroke-width="1" fill="none" fill-rule="evenodd">
        <g id="Leistungen-Cards" transform="translate(-878.000000, -792.000000)" fill-rule="nonzero">
            <g id="Group-Copy-7" transform="translate(861.000000, 760.000000)">
                <g id="Group-10-Copy-9">
                    <g id="Group-9" transform="translate(17.000000, 32.000000)">
                        <g id="025-tooth-5">
                            <path d="M59.9983594,24.6735937 C58.1196094,27.1920703 54.3747656,29.3153906 49.528125,30.6396094 C50.1165234,27.8438672 50.0036719,24.9589453 49.138125,22.2626953 C47.8836328,18.3542578 45.1993359,15.4825781 41.7734766,14.3839453 C35.7733594,12.4599609 30.7937109,14.7677344 28.6753125,16.0447266 C26.5567969,14.7676172 21.5770312,12.4598437 15.5771484,14.3839453 C12.1503516,15.4829297 9.46582031,18.3554297 8.2115625,22.2652734 C7.12113281,25.6644141 7.22753906,29.3622656 8.42613281,32.8035937 C7.45371094,33.1846875 6.48234375,33.6106641 5.51414062,34.0841016 C3.26589844,35.1835547 1.39371094,36.3519141 0.0015234375,37.3153125 L0.0015234375,41.7016406 C0.965039062,40.9188281 3.55511719,38.9436328 7.14878906,37.1982422 C7.98105469,36.7940625 8.90507812,36.3860156 9.90398437,36.0023437 C10.2445312,36.5837109 10.6187109,37.1511328 11.0276953,37.7009766 C12.4323047,39.5888672 13.381875,41.6690625 13.8498047,43.8837891 C14.0610937,44.8839844 14.2448437,45.9849609 14.3957812,47.1564844 C15.451875,55.3491797 17.6027344,59.6649609 20.7885937,59.9834766 C22.7166797,60.1757812 24.286875,58.6598437 25.4540625,55.4759766 C26.2289062,53.3619141 26.8389844,50.5354687 27.1721484,47.5173047 C27.3948047,45.4999219 27.9307031,44.3878125 28.3412109,43.8101953 C28.4421094,43.6680469 28.5786328,43.6382812 28.6754297,43.6382812 C28.7722266,43.6382812 28.90875,43.6680469 29.0097656,43.8101953 C29.4201563,44.3879297 29.9560547,45.5000391 30.1785938,47.5173047 C30.5117578,50.5353516 31.1219531,53.3617969 31.8966797,55.4759766 C32.9977734,58.4803125 34.4573437,60 36.2388281,59.9997656 C36.3453516,59.9997656 36.4532813,59.994375 36.5620313,59.9834766 C39.7480078,59.6648437 41.8988672,55.3491797 42.9548438,47.1564844 C43.1060156,45.9846094 43.2895313,44.8835156 43.5007031,43.884375 C43.9682813,41.6714062 44.9191406,39.5891016 46.3272656,37.6951172 C47.0626172,36.7060547 47.6873438,35.660625 48.1993359,34.5780469 C48.2644922,34.5641016 48.3303516,34.5509766 48.3952734,34.5367969 C53.1772266,33.4926562 57.1528125,31.7821875 59.9984766,29.5864453 L59.9983594,24.6735937 Z M43.5058594,35.5979297 C41.7931641,37.9018359 40.6341797,40.4453906 40.0610156,43.1580469 C39.830625,44.2484766 39.6311719,45.4427344 39.4680469,46.7073047 C38.5396875,53.9092969 36.9203906,56.0844141 36.3442969,56.4332813 C36.0785156,56.1700781 35.5264453,55.3589063 34.9457813,53.5284375 C34.3846875,51.7598438 33.9324609,49.4881641 33.6725391,47.1319922 C33.4273828,44.9108203 32.8226953,43.1084766 31.8753516,41.7746484 C31.1407031,40.7403516 29.9443359,40.1230078 28.6749609,40.123125 C27.4058203,40.123125 26.2094531,40.7405859 25.4748047,41.7746484 C24.5273437,43.1082422 23.9227734,44.9108203 23.6776172,47.1321094 C23.4175781,49.4882812 22.9653516,51.7599609 22.404375,53.5285547 C21.8237109,55.3589062 21.2715234,56.1700781 21.0058594,56.4333984 C20.4296484,56.0844141 18.8104687,53.9094141 17.8821094,46.7074219 C17.7191016,45.4433203 17.5196484,44.2490625 17.2890234,43.1576953 C16.7153906,40.4426953 15.5576953,37.9008984 13.8476953,35.6028516 C13.6742578,35.3696484 13.5085547,35.1326953 13.3503516,34.8924609 C16.6833984,34.025625 20.533125,33.6282422 24.5544141,34.4126953 C31.2035156,35.7101953 37.734375,36.0104297 43.7114063,35.3132813 C43.6439063,35.4085547 43.5759375,35.5037109 43.5058594,35.5979297 Z M45.6619922,31.4848828 C40.9264453,32.2848047 33.9786328,32.6695312 25.2278906,30.9621094 C20.9340234,30.1241016 16.3628906,30.3761719 11.7555469,31.6795312 C10.7941406,28.9421484 10.7003906,26.0155078 11.5589062,23.3392969 C12.4620703,20.5235156 14.3178516,18.4796484 16.6504687,17.7316406 C17.8305469,17.353125 19.0280859,17.1641016 20.2362891,17.1641016 C21.5905078,17.1641016 22.9580859,17.4017578 24.3276563,17.8769531 C26.3244141,18.5696484 27.5803125,19.5328125 27.5871094,19.5379687 L28.6603125,20.4072656 L29.7576563,19.5423047 C29.7701953,19.5326953 31.0259766,18.5695313 33.0228516,17.8768359 C35.6143359,16.9777734 38.1973828,16.9289063 40.7001563,17.7315234 C43.0319531,18.4792969 44.8875,20.5224609 45.7910156,23.3370703 C46.6296094,25.9505859 46.5605859,28.8030469 45.6619922,31.4848828 Z" id="Shape" fill="#69BAC2"></path>
                            <rect id="Rectangle-path" fill="#F2799D" x="26.9176172" y="0" width="3.51539063" height="7.31214844"></rect>
                            <rect id="Rectangle-path" fill="#F2799D" transform="translate(38.043281, 5.958594) rotate(-59.822333) translate(-38.043281, -5.958594) " x="34.3869657" y="4.20072231" width="7.31262975" height="3.51574372"></rect>
                            <rect id="Rectangle-path" fill="#F2799D" transform="translate(19.835575, 5.959629) rotate(-30.177667) translate(-19.835575, -5.959629) " x="18.0777615" y="2.30331392" width="3.51562653" height="7.31262975"></rect>
                        </g>
                    </g>
                </g>
            </g>
        </g>
    </g>
</svg>